<svg viewBox="0 0 28 28" xmlns="http://www.w3.org/2000/svg"><title>pikachu_back</title><g fill="none" fill-rule="evenodd"><path d="M1 8h1v1H1V8zm1 0h1v1H2V8zM1 9h1v1H1V9zm2 0h1v1H3V9zm5 0h1v1H8V9zm-7 1h1v1H1v-1zm3 0h1v1H4v-1zm4 0h1v1H8v-1zm1 0h1v1H9v-1zm-8 1h1v1H1v-1zm4 0h1v1H5v-1zm5 0h1v1h-1v-1zm-8 1h1v1H2v-1zm4 0h1v1H6v-1zm3 0h1v1H9v-1zm-6 1h1v1H3v-1zm4 0h1v1H7v-1zm-3 1h1v1H4v-1zm4 0h1v1H8v-1zm0 1h1v1H8v-1zm-6 1h1v1H2v-1zm6 0h1v1H8v-1zm-7 1h1v1H1v-1zm5 0h1v1H6v-1zm-5 1h1v1H1v-1zm4 0h1v1H5v-1zm-3 1h1v1H2v-1zm3 0h1v1H5v-1zm-2 1h1v1H3v-1zm-1 1h1v1H2v-1zm-1 1h1v1H1v-1zm3 0h1v1H4v-1zm-3 1h1v1H1v-1zm2 0h1v1H3v-1zm-1 1h1v1H2v-1zm2 0h1v1H4v-1zm-1 1h1v1H3v-1zm1 0h1v1H4v-1zm-1 1h1v1H3v-1zm1 0h1v1H4v-1zm-1 1h1v1H3v-1zm1 0h1v1H4v-1zm1 0h1v1H5v-1zm17-17h1v1h-1v-1zm1 0h1v1h-1v-1zm-2 1h1v1h-1v-1zm2 0h1v1h-1v-1zm-12 1h1v1h-1v-1zm9 0h1v1h-1v-1zm-8 1h1v1h-1v-1zm7 0h1v1h-1v-1zm3 0h1v1h-1v-1zm-11 1h1v1h-1v-1zm2 0h1v1h-1v-1zm1 0h1v1h-1v-1zm1 0h1v1h-1v-1zm1 0h1v1h-1v-1zm2 0h1v1h-1v-1zm3 0h1v1h-1v-1zm-11 1h1v1h-1v-1zm7 0h1v1h-1v-1zm5 1h1v1h-1v-1zM9 17h1v1H9v-1zm12 0h1v1h-1v-1zm1 1h1v1h-1v-1zM8 19h1v1H8v-1zm15 0h1v1h-1v-1zm1 2h1v1h-1v-1zM7 22h1v1H7v-1zm0 1h1v1H7v-1zm16 0h1v1h-1v-1zM6 24h1v1H6v-1zm0 1h1v1H6v-1zm17 0h1v1h-1v-1zm1 0h1v1h-1v-1zm1 1h1v1h-1v-1zm-1 1h1v1h-1v-1zM3 15h1v1H3v-1zm2 5h1v1H5v-1z" fill="#2f3622" class="gb-dark"/><path d="M9 13h1v1H9v-1zm-1-2h1v1H8v-1zm1 0h1v1H9v-1zm1 1h1v1h-1v-1zm0 2h1v1h-1v-1zm2 0h1v1h-1v-1zm-1 1h1v1h-1v-1zm-4 1h1v1H7v-1zm3 0h1v1h-1v-1zm-5 1h1v1H5v-1zm4 1h1v1H9v-1zm-1 2h1v1H8v-1zm-5 1h1v1H3v-1zm1 0h1v1H4v-1zm1 0h1v1H5v-1zm2 0h1v1H7v-1zm12 0h1v1h-1v-1zM2 22h1v1H2v-1zm1 0h1v1H3v-1zm15 0h1v1h-1v-1zm1 0h1v1h-1v-1zM2 23h1v1H2v-1zm4 0h1v1H6v-1zm2 0h1v1H8v-1zm1 0h1v1H9v-1zm-6 1h1v1H3v-1zm4 0h1v1H7v-1zm1 0h1v1H8v-1zm1 0h1v1H9v-1zm1 0h1v1h-1v-1zm1 0h1v1h-1v-1zm-1 1h1v1h-1v-1zm1 0h1v1h-1v-1zm1 0h1v1h-1v-1zm1 0h1v1h-1v-1zm-8 1h1v1H5v-1zM23 9h1v1h-1V9zm-1 2h1v1h-1v-1zm-1 1h1v1h-1v-1zm1 0h1v1h-1v-1zm1 0h1v1h-1v-1zm-6 2h1v1h-1v-1zm4 1h1v1h-1v-1zm-4 1h1v1h-1v-1zm4 2h1v1h-1v-1zm1 1h1v1h-1v-1zm2 1h1v1h-1v-1zm-2 2h1v1h-1v-1zm2 0h1v1h-1v-1zm-2 2h1v1h-1v-1zm3 1h1v1h-1v-1zm-1 1h1v1h-1v-1z" fill="#4d5d31" class="gb-normal"/><path d="M11 7h1v1h-1V7zm1 0h1v1h-1V7zm-1 1h1v1h-1V8zm1 0h1v1h-1V8zm1 0h1v1h-1V8zm6 0h1v1h-1V8zm-7 1h1v1h-1V9zm1 0h1v1h-1V9zm5 0h1v1h-1V9zm-5 1h1v1h-1v-1zm1 0h1v1h-1v-1zm4 0h1v1h-1v-1zm-4 1h1v1h-1v-1zm3 0h1v1h-1v-1zM0 13h1v1H0v-1zm10 0h1v1h-1v-1zm1 0h1v1h-1v-1zM0 14h1v1H0v-1zm1 0h1v1H1v-1zm6 0h1v1H7v-1zm-1 1h1v1H6v-1zm1 0h1v1H7v-1zm5 0h1v1h-1v-1zm-9 1h1v1H3v-1zm1 0h1v1H4v-1zm1 0h1v1H5v-1zm1 0h1v1H6v-1zm5 0h1v1h-1v-1zm-9 1h1v1H2v-1zm1 0h1v1H3v-1zm1 0h1v1H4v-1zm6 0h1v1h-1v-1zm-8 1h1v1H2v-1zm1 0h1v1H3v-1zm1 0h1v1H4v-1zm-1 1h1v1H3v-1zm1 0h1v1H4v-1zm5 0h1v1H9v-1zm-5 1h1v1H4v-1zm4 2h1v1H8v-1zm2 1h1v1h-1v-1zm2 1h1v1h-1v-1zm-3 1h1v1H9v-1zm5 0h1v1h-1v-1zm-8 1h1v1H6v-1zm0 1h1v1H6v-1zm14-6h1v1h-1v-1zm0-8h1v1h-1v-1zm1 0h1v1h-1v-1zm5 1h1v1h-1v-1zm-1 1h1v1h-1v-1zm1 0h1v1h-1v-1zm-5 1h1v1h-1v-1zm4 0h1v1h-1v-1zm-1 1h1v1h-1v-1zm-3 2h1v1h-1v-1zm-3 1h1v1h-1v-1zm1 0h1v1h-1v-1zm-2 1h1v1h-1v-1zm0 1h1v1h-1v-1zm3 0h1v1h-1v-1zm-2 1h1v1h-1v-1zm1 0h1v1h-1v-1zm4 3h1v1h-1v-1zM2 15h1v1H2v-1z" fill="#7d7f4c" class="gb-light"/></g></svg>
