<svg viewBox="0 0 56 56" xmlns="http://www.w3.org/2000/svg"><title>blue_front</title><g fill="none" fill-rule="evenodd"><path d="M28 1h1v1h-1V1zm-1 1h1v1h-1V2zm2 0h1v1h-1V2zM19 3h1v1h-1V3zm1 0h1v1h-1V3zm1 0h1v1h-1V3zm1 0h1v1h-1V3zm5 0h1v1h-1V3zm2 0h1v1h-1V3zm2 0h1v1h-1V3zM18 4h1v1h-1V4zm5 0h1v1h-1V4zm1 0h1v1h-1V4zm1 0h1v1h-1V4zm2 0h1v1h-1V4zm3 0h1v1h-1V4zm1 0h1v1h-1V4zM19 5h1v1h-1V5zm7 0h1v1h-1V5zm1 0h1v1h-1V5zm1 0h1v1h-1V5zm3 0h1v1h-1V5zM20 6h1v1h-1V6zm1 0h1v1h-1V6zm7 0h1v1h-1V6zm3 0h1v1h-1V6zM21 7h1v1h-1V7zm1 0h1v1h-1V7zm-3 1h1v1h-1V8zm1 0h1v1h-1V8zm-3 1h1v1h-1V9zm1 0h1v1h-1V9zm-2 1h1v1h-1v-1zm0 1h1v1h-1v-1zm1 0h1v1h-1v-1zm1 0h1v1h-1v-1zm1 0h1v1h-1v-1zm1 0h1v1h-1v-1zm-1 1h1v1h-1v-1zm4 0h1v1h-1v-1zm-4 1h1v1h-1v-1zm3 0h1v1h-1v-1zm1 0h1v1h-1v-1zm-5 1h1v1h-1v-1zm3 0h1v1h-1v-1zm1 0h1v1h-1v-1zm1 0h1v1h-1v-1zm1 0h1v1h-1v-1zm-6 1h1v1h-1v-1zm2 0h1v1h-1v-1zm1 0h1v1h-1v-1zm1 0h1v1h-1v-1zm1 0h1v1h-1v-1zm-5 1h1v1h-1v-1zm1 0h1v1h-1v-1zm3 0h1v1h-1v-1zm0 1h1v1h-1v-1zm1 1h1v1h-1v-1zm0 1h1v1h-1v-1zm9-17h1v1h-1V2zm1 1h1v1h-1V3zm0 1h1v1h-1V4zm0 1h1v1h-1V5zm1 1h1v1h-1V6zm2 0h1v1h-1V6zm1 0h1v1h-1V6zm-3 1h1v1h-1V7zm1 0h1v1h-1V7zm2 0h1v1h-1V7zm-3 1h1v1h-1V8zm3 0h1v1h-1V8zm-1 1h1v1h-1V9zm-2 1h1v1h-1v-1zm1 0h1v1h-1v-1zm1 0h1v1h-1v-1zm-2 1h1v1h-1v-1zm2 0h1v1h-1v-1zm0 1h1v1h-1v-1zm1 1h1v1h-1v-1zm-2 1h1v1h-1v-1zm1 0h1v1h-1v-1zm1 0h1v1h-1v-1zm1 0h1v1h-1v-1zm0 1h1v1h-1v-1zm1 1h1v1h-1v-1zm0 1h1v1h-1v-1zm-12-7h1v1h-1v-1zm0 1h1v1h-1v-1zm-1 1h1v1h-1v-1zm1 0h1v1h-1v-1zm-2 1h1v1h-1v-1zm2 0h1v1h-1v-1zm1 0h1v1h-1v-1zm1 0h1v1h-1v-1zm1 0h1v1h-1v-1zm-2 1h1v1h-1v-1zm2 0h1v1h-1v-1zm0 1h1v1h-1v-1zm-1 3h1v1h-1v-1zm11 0h1v1h-1v-1zm-13 1h1v1h-1v-1zm1 0h1v1h-1v-1zm8 0h1v1h-1v-1zm1 0h1v1h-1v-1zm1 0h1v1h-1v-1zm2 0h1v1h-1v-1zm-4 1h1v1h-1v-1zm1 0h1v1h-1v-1zm1 0h1v1h-1v-1zm3 0h1v1h-1v-1zm-14 1h1v1h-1v-1zm1 0h1v1h-1v-1zm5 0h1v1h-1v-1zm1 0h1v1h-1v-1zm1 0h1v1h-1v-1zm2 0h1v1h-1v-1zm4 0h1v1h-1v-1zm-17 1h1v1h-1v-1zm1 0h1v1h-1v-1zm1 0h1v1h-1v-1zm1 0h1v1h-1v-1zm4 0h1v1h-1v-1zm1 0h1v1h-1v-1zm4 0h1v1h-1v-1zm1 0h1v1h-1v-1zm5 0h1v1h-1v-1zm-17 1h1v1h-1v-1zm5 0h1v1h-1v-1zm1 0h1v1h-1v-1zm7 0h1v1h-1v-1zm4 0h1v1h-1v-1zm-17 1h1v1h-1v-1zm1 0h1v1h-1v-1zm1 0h1v1h-1v-1zm1 0h1v1h-1v-1zm2 0h1v1h-1v-1zm7 0h1v1h-1v-1zm1 0h1v1h-1v-1zm5 0h1v1h-1v-1zm-14 1h1v1h-1v-1zm9 0h1v1h-1v-1zm5 0h1v1h-1v-1zm-15 1h1v1h-1v-1zm11 0h1v1h-1v-1zm3 0h1v1h-1v-1zm-14 1h1v1h-1v-1zm10 0h1v1h-1v-1zm1 0h1v1h-1v-1zm1 0h1v1h-1v-1zm1 0h1v1h-1v-1zm-9-16h1v1h-1v-1zm7 7h1v1h-1v-1zm-4 8h1v1h-1v-1zm1 0h1v1h-1v-1zm1 0h1v1h-1v-1zm-3 1h1v1h-1v-1zm0 1h1v1h-1v-1zm0 1h1v1h-1v-1zm0 1h1v1h-1v-1zm-1 1h1v1h-1v-1zm0 1h1v1h-1v-1zm-3 1h1v1h-1v-1zm1 0h1v1h-1v-1zm2 0h1v1h-1v-1zm-4 1h1v1h-1v-1zm3 0h1v1h-1v-1zm1 0h1v1h-1v-1zm-5 1h1v1h-1v-1zm5 0h1v1h-1v-1zm-5 1h1v1h-1v-1zm5 0h1v1h-1v-1zm-4 1h1v1h-1v-1zm3 0h1v1h-1v-1zm1 0h1v1h-1v-1zm-3 1h1v1h-1v-1zm1 0h1v1h-1v-1zm2 0h1v1h-1v-1zm-6 1h1v1h-1v-1zm1 0h1v1h-1v-1zm1 0h1v1h-1v-1zm1 0h1v1h-1v-1zm1 0h1v1h-1v-1zm1 0h1v1h-1v-1zm1 0h1v1h-1v-1zm-6 1h1v1h-1v-1zm1 0h1v1h-1v-1zm1 0h1v1h-1v-1zm1 0h1v1h-1v-1zm1 0h1v1h-1v-1zm1 0h1v1h-1v-1zm-4 1h1v1h-1v-1zm1 0h1v1h-1v-1zm1 0h1v1h-1v-1zm1 0h1v1h-1v-1zm1 0h1v1h-1v-1zm1 0h1v1h-1v-1zm-5 1h1v1h-1v-1zm1 0h1v1h-1v-1zm1 0h1v1h-1v-1zm1 0h1v1h-1v-1zm1 0h1v1h-1v-1zm1 0h1v1h-1v-1zm-5 1h1v1h-1v-1zm1 0h1v1h-1v-1zm2 0h1v1h-1v-1zm2 0h1v1h-1v-1zm-1 1h1v1h-1v-1zm1 0h1v1h-1v-1zm-4 1h1v1h-1v-1zm2 0h1v1h-1v-1zm2 0h1v1h-1v-1zm1 0h1v1h-1v-1zm-5 1h1v1h-1v-1zm1 0h1v1h-1v-1zm2 0h1v1h-1v-1zm1 0h1v1h-1v-1zm1 0h1v1h-1v-1zm-5 1h1v1h-1v-1zm1 0h1v1h-1v-1zm1 0h1v1h-1v-1zm1 0h1v1h-1v-1zm1 0h1v1h-1v-1zm1 0h1v1h-1v-1zm-5 1h1v1h-1v-1zm1 0h1v1h-1v-1zm0 1h1v1h-1v-1zm1 0h1v1h-1v-1zm1 0h1v1h-1v-1zm1 0h1v1h-1v-1zm1 0h1v1h-1v-1zm-4 1h1v1h-1v-1zm2 0h1v1h-1v-1zm1 0h1v1h-1v-1zm2 0h1v1h-1v-1zm-5 1h1v1h-1v-1zm1 0h1v1h-1v-1zm3 0h1v1h-1v-1zm1 0h1v1h-1v-1zm-5 1h1v1h-1v-1zm1 0h1v1h-1v-1zm1 0h1v1h-1v-1zm1 0h1v1h-1v-1zm1 0h1v1h-1v-1zm1 0h1v1h-1v-1zm-5 1h1v1h-1v-1zm2 0h1v1h-1v-1zm1 0h1v1h-1v-1zm1 0h1v1h-1v-1zm1 0h1v1h-1v-1zm-5 1h1v1h-1v-1zm5 0h1v1h-1v-1zm-4 1h1v1h-1v-1zm1 0h1v1h-1v-1zm1 0h1v1h-1v-1zm1 0h1v1h-1v-1zM18 35h1v1h-1v-1zm0 1h1v1h-1v-1zm0 1h1v1h-1v-1zm1 1h1v1h-1v-1zm0 1h1v1h-1v-1zm0 1h1v1h-1v-1zm1 1h1v1h-1v-1zm1 0h1v1h-1v-1zm1 0h1v1h-1v-1zm0 1h1v1h-1v-1zm0 1h1v1h-1v-1zm0 1h1v1h-1v-1zm5 0h1v1h-1v-1zm-5 1h1v1h-1v-1zm5 0h1v1h-1v-1zm-5 1h1v1h-1v-1zm5 0h1v1h-1v-1zm-5 1h1v1h-1v-1zm5 0h1v1h-1v-1zm-5 1h1v1h-1v-1zm5 0h1v1h-1v-1zm7 0h1v1h-1v-1zm-12 1h1v1h-1v-1zm5 0h1v1h-1v-1zm-5 1h1v1h-1v-1zm5 0h1v1h-1v-1zm-6 1h1v1h-1v-1zm1 0h1v1h-1v-1zm5 0h1v1h-1v-1zm-4-11h1v1h-1v-1zM33 9h1v1h-1V9zm-3 1h1v1h-1v-1zm2 0h1v1h-1v-1zm-8 1h1v1h-1v-1zm5 0h1v1h-1v-1zm1 0h1v1h-1v-1zm-1 1h1v1h-1v-1zm2 0h1v1h-1v-1zm1 0h1v1h-1v-1zm0 1h1v1h-1v-1zm1 0h1v1h-1v-1zm-1 1h1v1h-1v-1zm1 0h1v1h-1v-1zm-8 1h1v1h-1v-1zm9 0h1v1h-1v-1zm-9 1h1v1h-1v-1zm8 0h1v1h-1v-1zm1 0h1v1h-1v-1zm-2 1h1v1h-1v-1zm3 0h1v1h-1v-1zm-2 1h1v1h-1v-1zm1 0h1v1h-1v-1zm1 0h1v1h-1v-1zm-3 1h1v1h-1v-1zm-7 1h1v1h-1v-1zm6 0h1v1h-1v-1zm-1 1h1v1h-1v-1zm-8 2h1v1h-1v-1zm1 0h1v1h-1v-1zm-2 1h1v1h-1v-1zm0 1h1v1h-1v-1zm4 0h1v1h-1v-1zm-4 1h1v1h-1v-1zm2 0h1v1h-1v-1zm2 0h1v1h-1v-1zm-2 1h1v1h-1v-1zm2 0h1v1h-1v-1zm-5 1h1v1h-1v-1zm3 0h1v1h-1v-1zm2 0h1v1h-1v-1zm2 0h1v1h-1v-1zm-7 1h1v1h-1v-1zm2 0h1v1h-1v-1zm3 0h1v1h-1v-1zm2 0h1v1h-1v-1zm-7 1h1v1h-1v-1zm2 0h1v1h-1v-1zm3 0h1v1h-1v-1zm1 0h1v1h-1v-1zm-4 1h1v1h-1v-1zm2 0h1v1h-1v-1zm3 0h1v1h-1v-1zm-8 1h1v1h-1v-1zm3 0h1v1h-1v-1zm2 0h1v1h-1v-1zm3 0h1v1h-1v-1zm-8 1h1v1h-1v-1zm3 0h1v1h-1v-1zm3 0h1v1h-1v-1zm1 0h1v1h-1v-1zm-7 1h1v1h-1v-1zm2 0h1v1h-1v-1zm0 1h1v1h-1v-1zm0 1h1v1h-1v-1zm0 1h1v1h-1v-1zm-1 1h1v1h-1v-1zm1 0h1v1h-1v-1zm1 1h1v1h-1v-1zm1 0h1v1h-1v-1zm1 0h1v1h-1v-1zm1 0h1v1h-1v-1zm-3 1h1v1h-1v-1zm2 0h1v1h-1v-1zm1 0h1v1h-1v-1zm-2 1h1v1h-1v-1zm1 0h1v1h-1v-1zm1 0h1v1h-1v-1zm1 0h1v1h-1v-1zm-3 1h1v1h-1v-1zm1 0h1v1h-1v-1zm1 0h1v1h-1v-1zm1 0h1v1h-1v-1zm-2 1h1v1h-1v-1zm2 0h1v1h-1v-1zm-1 1h1v1h-1v-1zm1 0h1v1h-1v-1zm-2 1h1v1h-1v-1zm2 0h1v1h-1v-1zm-3 1h1v1h-1v-1zm1 0h1v1h-1v-1zm1 0h1v1h-1v-1zm1 0h1v1h-1v-1zm-3 2h1v1h-1v-1zm1 0h1v1h-1v-1zm1 0h1v1h-1v-1zm1 0h1v1h-1v-1zm-3 2h1v1h-1v-1zm1 0h1v1h-1v-1zm1 0h1v1h-1v-1zm1 0h1v1h-1v-1zm-3 1h1v1h-1v-1zm1 0h1v1h-1v-1zm1 0h1v1h-1v-1zm1 0h1v1h-1v-1zm-6 1h1v1h-1v-1zm2 0h1v1h-1v-1zm1 0h1v1h-1v-1zm3 0h1v1h-1v-1zm-7 1h1v1h-1v-1zm5 0h1v1h-1v-1zm1 0h1v1h-1v-1zm1 0h1v1h-1v-1zm-6 1h1v1h-1v-1zm1 0h1v1h-1v-1zm1 0h1v1h-1v-1zm1 0h1v1h-1v-1z" fill="#2f3622" class="gb-dark"/><path d="M28 3h1v1h-1V3zm-7 1h1v1h-1V4zm1 0h1v1h-1V4zm6 0h1v1h-1V4zm1 0h1v1h-1V4zm-11 6h1v1h-1v-1zm3 3h1v1h-1v-1zm3 0h1v1h-1v-1zm2 0h1v1h-1v-1zm1 1h1v1h-1v-1zm-1 3h1v1h-1v-1zm-4 1h1v1h-1v-1zm2 1h1v1h-1v-1zm2 1h1v1h-1v-1zm4 0h1v1h-1v-1zm-1 1h1v1h-1v-1zm-5 2h1v1h-1v-1zm9 0h1v1h-1v-1zm-10 1h1v1h-1v-1zm-1 1h1v1h-1v-1zm2 0h1v1h-1v-1zm2 0h1v1h-1v-1zm-4 1h1v1h-1v-1zm2 0h1v1h-1v-1zm2 0h1v1h-1v-1zm-6 1h1v1h-1v-1zm1 0h1v1h-1v-1zm1 0h1v1h-1v-1zm2 0h1v1h-1v-1zm2 0h1v1h-1v-1zm-5 1h1v1h-1v-1zm1 0h1v1h-1v-1zm2 0h1v1h-1v-1zm2 0h1v1h-1v-1zm-5 1h1v1h-1v-1zm2 0h1v1h-1v-1zm1 0h1v1h-1v-1zm2 0h1v1h-1v-1zm-5 1h1v1h-1v-1zm2 0h1v1h-1v-1zm1 0h1v1h-1v-1zm-5 1h1v1h-1v-1zm1 0h1v1h-1v-1zm1 0h1v1h-1v-1zm2 0h1v1h-1v-1zm-3 1h1v1h-1v-1zm1 0h1v1h-1v-1zm2 0h1v1h-1v-1zm-3 1h1v1h-1v-1zm1 0h1v1h-1v-1zm2 0h1v1h-1v-1zm1 0h1v1h-1v-1zm-4 1h1v1h-1v-1zm2 0h1v1h-1v-1zm2 0h1v1h-1v-1zm1 0h1v1h-1v-1zm-6 1h1v1h-1v-1zm1 0h1v1h-1v-1zm3 0h1v1h-1v-1zm2 0h1v1h-1v-1zm-6 1h1v1h-1v-1zm1 0h1v1h-1v-1zm2 0h1v1h-1v-1zm2 0h1v1h-1v-1zm1 0h1v1h-1v-1zm-6 1h1v1h-1v-1zm1 0h1v1h-1v-1zm3 0h1v1h-1v-1zm2 0h1v1h-1v-1zm-3 1h1v1h-1v-1zm2 0h1v1h-1v-1zm-2 15h1v1h-1v-1zm1 0h1v1h-1v-1zm8 0h1v1h-1v-1zm2 1h1v1h-1v-1zm1 0h1v1h-1v-1zM20 5h1v1h-1V5zm1 0h1v1h-1V5zm1 0h1v1h-1V5zm1 0h1v1h-1V5zm1 0h1v1h-1V5zm1 0h1v1h-1V5zm4 0h1v1h-1V5zm1 0h1v1h-1V5zm2 0h1v1h-1V5zM22 6h1v1h-1V6zm1 0h1v1h-1V6zm1 0h1v1h-1V6zm1 0h1v1h-1V6zm1 0h1v1h-1V6zm1 0h1v1h-1V6zm2 0h1v1h-1V6zm1 0h1v1h-1V6zm2 0h1v1h-1V6zm1 0h1v1h-1V6zM23 7h1v1h-1V7zm1 0h1v1h-1V7zm1 0h1v1h-1V7zm1 0h1v1h-1V7zm1 0h1v1h-1V7zm1 0h1v1h-1V7zm1 0h1v1h-1V7zm1 0h1v1h-1V7zm1 0h1v1h-1V7zm1 0h1v1h-1V7zm1 0h1v1h-1V7zm3 0h1v1h-1V7zM21 8h1v1h-1V8zm1 0h1v1h-1V8zm1 0h1v1h-1V8zm1 0h1v1h-1V8zm1 0h1v1h-1V8zm1 0h1v1h-1V8zm1 0h1v1h-1V8zm1 0h1v1h-1V8zm1 0h1v1h-1V8zm1 0h1v1h-1V8zm1 0h1v1h-1V8zm1 0h1v1h-1V8zm1 0h1v1h-1V8zm2 0h1v1h-1V8zm1 0h1v1h-1V8zM19 9h1v1h-1V9zm1 0h1v1h-1V9zm1 0h1v1h-1V9zm1 0h1v1h-1V9zm1 0h1v1h-1V9zm1 0h1v1h-1V9zm1 0h1v1h-1V9zm1 0h1v1h-1V9zm1 0h1v1h-1V9zm1 0h1v1h-1V9zm1 0h1v1h-1V9zm1 0h1v1h-1V9zm1 0h1v1h-1V9zm1 0h1v1h-1V9zm2 0h1v1h-1V9zm1 0h1v1h-1V9zm-16 1h1v1h-1v-1zm1 0h1v1h-1v-1zm1 0h1v1h-1v-1zm1 0h1v1h-1v-1zm1 0h1v1h-1v-1zm1 0h1v1h-1v-1zm1 0h1v1h-1v-1zm1 0h1v1h-1v-1zm2 0h1v1h-1v-1zm1 0h1v1h-1v-1zm2 0h1v1h-1v-1zm-10 1h1v1h-1v-1zm1 0h1v1h-1v-1zm1 0h1v1h-1v-1zm2 0h1v1h-1v-1zm1 0h1v1h-1v-1zm2 0h1v1h-1v-1zm3 0h1v1h-1v-1zm-11 1h1v1h-1v-1zm1 0h1v1h-1v-1zm1 0h1v1h-1v-1zm2 0h1v1h-1v-1zm1 0h1v1h-1v-1zm3 0h1v1h-1v-1zm2 0h1v1h-1v-1zm4 0h1v1h-1v-1zm-1 3h1v1h-1v-1zm3 1h1v1h-1v-1zm3 3h1v1h-1v-1zm0 1h1v1h-1v-1zm1 0h1v1h-1v-1zm-2 1h1v1h-1v-1zm1 0h1v1h-1v-1zm1 0h1v1h-1v-1zm-6 1h1v1h-1v-1zm1 0h1v1h-1v-1zm3 0h1v1h-1v-1zm1 0h1v1h-1v-1zm1 0h1v1h-1v-1zm1 0h1v1h-1v-1zm-7 1h1v1h-1v-1zm1 0h1v1h-1v-1zm1 0h1v1h-1v-1zm1 0h1v1h-1v-1zm2 0h1v1h-1v-1zm1 0h1v1h-1v-1zm1 0h1v1h-1v-1zm-12 1h1v1h-1v-1zm2 0h1v1h-1v-1zm1 0h1v1h-1v-1zm1 0h1v1h-1v-1zm1 0h1v1h-1v-1zm1 0h1v1h-1v-1zm1 0h1v1h-1v-1zm3 0h1v1h-1v-1zm1 0h1v1h-1v-1zm1 0h1v1h-1v-1zm1 0h1v1h-1v-1zm-15 1h1v1h-1v-1zm1 0h1v1h-1v-1zm2 0h1v1h-1v-1zm1 0h1v1h-1v-1zm1 0h1v1h-1v-1zm1 0h1v1h-1v-1zm1 0h1v1h-1v-1zm1 0h1v1h-1v-1zm1 0h1v1h-1v-1zm1 0h1v1h-1v-1zm2 0h1v1h-1v-1zm1 0h1v1h-1v-1zm1 0h1v1h-1v-1zm1 0h1v1h-1v-1zm-15 1h1v1h-1v-1zm2 0h1v1h-1v-1zm1 0h1v1h-1v-1zm1 0h1v1h-1v-1zm1 0h1v1h-1v-1zm1 0h1v1h-1v-1zm1 0h1v1h-1v-1zm4 0h1v1h-1v-1zm2 0h1v1h-1v-1zm1 0h1v1h-1v-1zm-14 1h1v1h-1v-1zm2 0h1v1h-1v-1zm1 0h1v1h-1v-1zm1 0h1v1h-1v-1zm1 0h1v1h-1v-1zm1 0h1v1h-1v-1zm-5 1h1v1h-1v-1zm1 0h1v1h-1v-1zm1 0h1v1h-1v-1zm1 0h1v1h-1v-1zm1 0h1v1h-1v-1zm1 0h1v1h-1v-1zm-5 1h1v1h-1v-1zm1 0h1v1h-1v-1zm1 0h1v1h-1v-1zm1 0h1v1h-1v-1zm1 0h1v1h-1v-1zm1 0h1v1h-1v-1zm-6 1h1v1h-1v-1zm1 0h1v1h-1v-1zm1 0h1v1h-1v-1zm1 0h1v1h-1v-1zm1 0h1v1h-1v-1zm1 0h1v1h-1v-1zm1 0h1v1h-1v-1zm-5 1h1v1h-1v-1zm1 0h1v1h-1v-1zm1 0h1v1h-1v-1zm1 0h1v1h-1v-1zm1 0h1v1h-1v-1zm-4 1h1v1h-1v-1zm1 0h1v1h-1v-1zm1 0h1v1h-1v-1zm1 0h1v1h-1v-1zm1 0h1v1h-1v-1zm-5 1h1v1h-1v-1zm1 0h1v1h-1v-1zm1 0h1v1h-1v-1zm3 0h1v1h-1v-1zm-6 1h1v1h-1v-1zm1 0h1v1h-1v-1zm1 0h1v1h-1v-1zm-2 1h1v1h-1v-1zm1 0h1v1h-1v-1zm3 0h1v1h-1v-1zm1 0h1v1h-1v-1zm-5 1h1v1h-1v-1zm1 0h1v1h-1v-1zm3 0h1v1h-1v-1zm1 0h1v1h-1v-1zm-5 1h1v1h-1v-1zm1 0h1v1h-1v-1zm1 0h1v1h-1v-1zm-2 1h1v1h-1v-1zm1 0h1v1h-1v-1zm1 0h1v1h-1v-1zm1 0h1v1h-1v-1zm3 0h1v1h-1v-1zm-6 1h1v1h-1v-1zm0 1h1v1h-1v-1zm7 0h1v1h-1v-1zm-6 1h1v1h-1v-1zm0 1h1v1h-1v-1zm-4 1h1v1h-1v-1zm2 0h1v1h-1v-1zm2 0h1v1h-1v-1zm3 0h1v1h-1v-1zm2 0h1v1h-1v-1zm-9 1h1v1h-1v-1zm1 0h1v1h-1v-1zm4 0h1v1h-1v-1zm1 0h1v1h-1v-1zm1 0h1v1h-1v-1zm1 0h1v1h-1v-1zm3 0h1v1h-1v-1zm-11 1h1v1h-1v-1zm2 0h1v1h-1v-1zm5 0h1v1h-1v-1zm2 0h1v1h-1v-1zm-1 1h1v1h-1v-1zm-8 1h1v1h-1v-1zm1 0h1v1h-1v-1zm1 0h1v1h-1v-1zm1 0h1v1h-1v-1zm5 1h1v1h-1v-1zm1 0h1v1h-1v-1zm1 0h1v1h-1v-1zm-10 1h1v1h-1v-1zm1 0h1v1h-1v-1zm1 0h1v1h-1v-1zm1 0h1v1h-1v-1zm5 1h1v1h-1v-1zm3 0h1v1h-1v-1zm-2 1h1v1h-1v-1zm1 0h1v1h-1v-1zm-12 1h1v1h-1v-1zm3 0h1v1h-1v-1zm1 0h1v1h-1v-1z" fill="#4d5d31" class="gb-normal"/><path d="M28 2h1v1h-1V2zm4 1h1v1h-1V3zM19 4h1v1h-1V4zm1 0h1v1h-1V4zm12 0h1v1h-1V4zm-15 6h1v1h-1v-1zm3 3h1v1h-1v-1zm11 0h1v1h-1v-1zm3 0h1v1h-1v-1zm-15 1h1v1h-1v-1zm1 0h1v1h-1v-1zm5 0h1v1h-1v-1zm1 0h1v1h-1v-1zm5 0h1v1h-1v-1zm3 0h1v1h-1v-1zm-15 1h1v1h-1v-1zm7 0h1v1h-1v-1zm1 0h1v1h-1v-1zm1 0h1v1h-1v-1zm-5 1h1v1h-1v-1zm3 0h1v1h-1v-1zm1 0h1v1h-1v-1zm1 0h1v1h-1v-1zm1 0h1v1h-1v-1zm1 0h1v1h-1v-1zm-7 1h1v1h-1v-1zm1 0h1v1h-1v-1zm1 0h1v1h-1v-1zm2 0h1v1h-1v-1zm1 0h1v1h-1v-1zm1 0h1v1h-1v-1zm4 0h1v1h-1v-1zm1 0h1v1h-1v-1zm-10 1h1v1h-1v-1zm1 0h1v1h-1v-1zm1 0h1v1h-1v-1zm1 0h1v1h-1v-1zm1 0h1v1h-1v-1zm8 0h1v1h-1v-1zm-11 1h1v1h-1v-1zm1 0h1v1h-1v-1zm1 1h1v1h-1v-1zm1 0h1v1h-1v-1zm0 2h1v1h-1v-1zm1 0h1v1h-1v-1zm4 0h1v1h-1v-1zm-7 1h1v1h-1v-1zm1 0h1v1h-1v-1zm1 0h1v1h-1v-1zm1 0h1v1h-1v-1zm3 0h1v1h-1v-1zm-10 1h1v1h-1v-1zm2 0h1v1h-1v-1zm-1 1h1v1h-1v-1zm3 6h1v1h-1v-1zm-1 1h1v1h-1v-1zm1 0h1v1h-1v-1zm-3 2h1v1h-1v-1zm-1 1h1v1h-1v-1zm2 0h1v1h-1v-1zm-1 1h1v1h-1v-1zm-1 1h1v1h-1v-1zm2 0h1v1h-1v-1zm-1 1h1v1h-1v-1zm2 0h1v1h-1v-1zm-5 1h1v1h-1v-1zm1 0h1v1h-1v-1zm0 1h1v1h-1v-1zm-1 13h1v1h-1v-1zm1 0h1v1h-1v-1zm10 1h1v1h-1v-1zm1 0h1v1h-1v-1z" fill="#7d7f4c" class="gb-light"/></g></svg>
