<svg viewBox="0 0 16 16" xmlns="http://www.w3.org/2000/svg"><title>frame</title><path d="M2 0h1v1H2V0zm1 0h1v1H3V0zm0 1h1v1H3V1zm0 1h1v1H3V2zM2 2h1v1H2V2zM1 2h1v1H1V2zm0-1h1v1H1V1zm3 1h1v1H4V2zm0-1h1v1H4V1zm1 1h1v1H5V2zM0 2h1v1H0V2zm0 1h1v1H0V3zm1 1h1v1H1V4zm4-1h1v1H5V3zM4 4h1v1H4V4zM2 5h1v1H2V5zm1 0h1v1H3V5zm9-5h1v1h-1V0zm1 0h1v1h-1V0zm0 1h1v1h-1V1zm0 1h1v1h-1V2zm-1 0h1v1h-1V2zm-1 0h1v1h-1V2zm0-1h1v1h-1V1zm3 1h1v1h-1V2zm0-1h1v1h-1V1zm1 1h1v1h-1V2zm-5 0h1v1h-1V2zm0 1h1v1h-1V3zm1 1h1v1h-1V4zm4-1h1v1h-1V3zm-1 1h1v1h-1V4zm-2 1h1v1h-1V5zm1 0h1v1h-1V5zM2 10h1v1H2v-1zm1 0h1v1H3v-1zm0 1h1v1H3v-1zm0 1h1v1H3v-1zm-1 0h1v1H2v-1zm-1 0h1v1H1v-1zm0-1h1v1H1v-1zm3 1h1v1H4v-1zm0-1h1v1H4v-1zm1 1h1v1H5v-1zm-5 0h1v1H0v-1zm0 1h1v1H0v-1zm1 1h1v1H1v-1zm4-1h1v1H5v-1zm-1 1h1v1H4v-1zm-2 1h1v1H2v-1zm1 0h1v1H3v-1zm9-5h1v1h-1v-1zm1 0h1v1h-1v-1zm0 1h1v1h-1v-1zm0 1h1v1h-1v-1zm-1 0h1v1h-1v-1zm-1 0h1v1h-1v-1zm0-1h1v1h-1v-1zm3 1h1v1h-1v-1zm0-1h1v1h-1v-1zm1 1h1v1h-1v-1zm-5 0h1v1h-1v-1zm0 1h1v1h-1v-1zm1 1h1v1h-1v-1zm4-1h1v1h-1v-1zm-1 1h1v1h-1v-1zm-2 1h1v1h-1v-1zm1 0h1v1h-1v-1zM2 6h1v1H2V6zM1 7h1v1H1V7zm2 0h1v1H3V7zm1-1h1v1H4V6zm1-1h1v1H5V5zm1-1h1v1H6V4zm0-3h1v1H6V1zm1 0h1v1H7V1zm0 3h1v1H7V4zm1 0h1v1H8V4zm0-1h1v1H8V3zm0-2h1v1H8V1zm1 0h1v1H9V1zm0 3h1v1H9V4zm1 1h1v1h-1V5zm1 1h1v1h-1V6zm0 1h1v1h-1V7zm0 2h1v1h-1V9zm0-1h1v1h-1V8zm2 0h1v1h-1V8zm0-1h1v1h-1V7zm0-1h1v1h-1V6zm0 3h1v1h-1V9zm-3 1h1v1h-1v-1zm-1 1h1v1H9v-1zm0 3h1v1H9v-1zm-1 0h1v1H8v-1zm-1 0h1v1H7v-1zm-1 0h1v1H6v-1zm1-1h1v1H7v-1zm1 0h1v1H8v-1zm0-2h1v1H8v-1zm-1 0h1v1H7v-1zm-1 0h1v1H6v-1zm-1-1h1v1H5v-1zM4 9h1v1H4V9zM3 8h1v1H3V8zM2 9h1v1H2V9zM1 8h1v1H1V8zm6-5h1v1H7V3z" fill="#2f3622" class="gb-dark" fill-rule="evenodd"/></svg>
