<svg viewBox="0 0 77 13" xmlns="http://www.w3.org/2000/svg"><title>red_balls</title><g fill="none" fill-rule="evenodd"><path d="M76 12h1V0h-2v11H2v2h74v-1zM8 10v1H4v-1h4zM6 9h2v1H6V9zm-6 3h2v1H0v-1z" fill="#2f3622" class="gb-dark"/><path d="M32 3h-1v3h1V3zm-6 0h-1v3h1V3zm4-2h-3v1h3V1zm0 6h-3v1h3V7zm1-1h-1v1h1V6zm0-4h-1v1h1V2zm-4 0h-1v1h1V2zm0 4h-1v1h1V6zM40 3h-1v3h1V3zm-6 0h-1v3h1V3zm4-2h-3v1h3V1zm0 6h-3v1h3V7zm1-1h-1v1h1V6zm0-4h-1v1h1V2zm-4 0h-1v1h1V2zm0 4h-1v1h1V6zM48 3h-1v3h1V3zm-6 0h-1v3h1V3zm4-2h-3v1h3V1zm0 6h-3v1h3V7zm1-1h-1v1h1V6zm0-4h-1v1h1V2zm-4 0h-1v1h1V2zm0 4h-1v1h1V6zM56 3h-1v3h1V3zm-6 0h-1v3h1V3zm4-2h-3v1h3V1zm0 6h-3v1h3V7zm1-1h-1v1h1V6zm0-4h-1v1h1V2zm-4 0h-1v1h1V2zm0 4h-1v1h1V6zM64 3h-1v3h1V3zm-6 0h-1v3h1V3zm4-2h-3v1h3V1zm0 6h-3v1h3V7zm1-1h-1v1h1V6zm0-4h-1v1h1V2zm-4 0h-1v1h1V2zm0 4h-1v1h1V6zM17 3h1v3h-1V3zm6 0h1v3h-1V3zm-4-2h3v1h-3V1zm0 6h3v1h-3V7zm-1-1h1v1h-1V6zm0-4h1v1h-1V2zm4 0h1v1h-1V2zm0 4h1v1h-1V6z" fill="#2f3622" class="gb-dark"/><path d="M18 5h5v1h-5V5zm1 1h3v1h-3V6z" fill="#7d7f4c" class="gb-light"/><path d="M19 2h3v1h-3V2zm1 1h3v1h-3V3zm-2 1h5v1h-5V4zm0-1h1v1h-1V3z" fill="#4d5d31" class="gb-normal"/></g></svg>
