<svg width="56" height="56" viewBox="0 0 56 56" xmlns="http://www.w3.org/2000/svg"><title>blue_front</title><g fill="none" fill-rule="evenodd"><path d="M19 13v-2h-1v2h-1v1h1v4h1v-4h1v-1h-1zm17 38v-1h-4v2h2v2h3v-3h-1zM25 20h2v5h-2v-5zm2 2h3v15h-3V22zm-3 4h3v11h-3V26zm1-1h1v1h-1v-1zm-2 6h1v6h-1v-6zm-1 1h1v4h-1v-4zm-1 1h1v2h-1v-2zm9 0h3v3h-3v-3zm0 3h1v1h-1v-1zm1-5h2v2h-2v-2zm-1-1h1v2h-1v-2zm0-6h2v3h-2v-3zm1 3h1v3h-1v-3zm-7-5h1v3h-1v-3zm-1 1h1v1h-1v-1zm0 2h1v2h-1v-2zm-3 19h1v8h-1v-8zm1 5h2v6h-2v-6zm-4 4h4v2h-4v-2zm15 1h4v1h-4v-1zm-3-17h1v3h-1v-3zM22 8h1v2h-1V8zm1 2h1v1h-1v-1zm1 1h1v1h-1v-1zm2-3h1v4h-1V8zm1-1h1v1h-1V7zm1 1h1v1h-1V8zm1 1h1v2h-1V9zm-1 2h1v1h-1v-1zm-1 2h1v2h-1v-2zm-4 0h1v2h-1v-2zm-2-3h1v2h-1v-2zm-1 2h1v6h-1v-6zm-4-2h2v1h-2v-1zm2-2h2v1h-2V8zm1-1h1v1h-1V7zm1-2h1v1h-1V5zm1-1h1v1h-1V4zm2-1h2v1h-2V3zm2-1h2v1h-2V2zm2 1h1v1h-1V3zm3 8h1v7h-1v-7zm1 1h3v1h-3v-1zm1 1h1v7h-1v-7zm-13 5h1v5h-1v-5zm-3 3h3v1h-3v-1zm-1 1h1v4h-1v-4zM25 0h1v1h-1V0zm3 0h1v1h-1V0zm0 2h2v1h-2V2zm3 1h1v1h-1V3zm1 1h1v1h-1V4zm1 1h1v1h-1V5zm1 1h1v1h-1V6zm2 1h1v1h-1V7zm1 1h1v1h-1V8zm-2 1h2v1h-2V9zm1 1h2v1h-2v-1zm-2 1h2v1h-2v-1zm1 1h1v2h-1v-2zm-1 2h1v1h-1v-1zm-1 1h1v1h-1v-1zm-6 1h1v1h-1v-1zm-6 2h2v1h-2v-1zm2 1h2v1h-2v-1zm-2 0h1v3h-1v-3zm1 1h1v3h-1v-3zm5 1h1v1h-1v-1zm0-2h1v1h-1v-1zm1 1h1v1h-1v-1zm1-2h1v2h-1v-2zm5-2h1v2h-1v-2zm1 2h3v1h-3v-1zm2 2h2v1h-2v-1zm1 2h2v1h-2v-1zm0 1h1v2h-1v-2zm-8-2h1v2h-1v-2zm1-1h1v1h-1v-1zm1 1h2v1h-2v-1zm2 1h1v1h-1v-1zm1 1h1v1h-1v-1zm1 1h1v1h-1v-1zm1 1h1v1h-1v-1zm1 1h1v1h-1v-1zm1 1h1v1h-1v-1zm-1 1h1v2h-1v-2zm-1 2h1v1h-1v-1zm-1 1h1v2h-1v-2zm-3-1h2v1h-2v-1zm1-1h1v1h-1v-1zm1-2h1v2h-1v-2zm-1-1h1v1h-1v-1zm-2-1h2v1h-2v-1zm5 8h1v2h-1v-2zm-3 2h3v1h-3v-1zm-1-1h1v1h-1v-1zm0 2h1v2h-1v-2zm1 2h1v1h-1v-1zm1 2h1v2h-1v-2zm1 3h1v6h-1v-6zm-1 5h1v2h-1v-2zm-1 1h1v1h-1v-1zm-1-1h1v1h-1v-1zm4 1h1v2h-1v-2zm-6 3h1v2h-1v-2zm1 1h2v1h-2v-1zm0-8h1v3h-1v-3zm-1-2h1v1h-1v-1zm-1-3h1v1h-1v-1zm-5-1h1v5h-1v-5zm-1 6h1v7h-1v-7zm-1 3h1v2h-1v-2zm0 4h1v2h-1v-2zm-5-1h2v1h-2v-1zm-1 1h1v1h-1v-1zm4-13h1v3h-1v-3zm0-3h1v1h-1v-1zm-5-10h1v2h-1v-2zm1 0h1v1h-1v-1zm1-1h1v1h-1v-1zm1-1h1v1h-1v-1zm2-1h1v1h-1v-1zm-1 0h1v1h-1v-1zm1 1h2v1h-2v-1zm-1 1h1v1h-1v-1zm-1 1h1v1h-1v-1zm3 1h1v1h-1v-1zm-2 1h2v1h-2v-1zm0 1h1v1h-1v-1zm-2 1h2v1h-2v-1zm-1-2h1v2h-1v-2z" fill="#2f3622" class="gb-dark"/><path d="M32 26h2v4h-2v-4zm2 1h1v2h-1v-2zm-4 0h1v3h-1v-3zm0 5h1v1h-1v-1zm4-1h2v1h-2v-1zm2 2h1v2h-1v-2zm-3 2h1v1h-1v-1zm-2 1h2v1h-2v-1zm-6 1h1v2h-1v-2zm-4 0h1v2h-1v-2zm1-1h1v1h-1v-1zm-1-1h1v1h-1v-1zm-1 7h1v2h-1v-2zm1 6h2v1h-2v-1zm2 2h1v2h-1v-2zm1 2h1v2h-1v-2zm-6 0h3v1h-3v-1zm6-8h1v1h-1v-1zm7-3h1v2h-1v-2zm1 3h1v1h-1v-1zm1 5h1v1h-1v-1zm1-1h1v1h-1v-1zm2 1h1v2h-1v-2zm1 2h1v3h-1v-3zm-5 1h2v1h-2v-1zm4-10h1v1h-1v-1zm-1-3h1v1h-1v-1zm-12-9h1v1h-1v-1zm-6-3h1v1h-1v-1zm1-1h1v1h-1v-1zm0-3h1v1h-1v-1zm-2-1h2v1h-2v-1zm6 1h1v1h-1v-1zm13-2h3v2h-3v-2zm1 2h2v1h-2v-1zm1 1h1v1h-1v-1zm-17-6h1v5h-1v-5zm-1-4h1v4h-1v-4zm-2-5h1v1h-1V9zm1 1h1v1h-1v-1zm1 1h1v2h-1v-2zm1 0h1v1h-1v-1zm2 0h1v1h-1v-1zm1 1h1v1h-1v-1zm3 0h2v1h-2v-1zm-1 5h2v1h-2v-1zm-2 1h1v1h-1v-1zm-2-1h1v1h-1v-1zm4 2h2v1h-2v-1zm-2 1h2v2h-2v-2zm0 2h1v1h-1v-1zm0 2h1v1h-1v-1zm1 1h1v1h-1v-1zm2 0h1v1h-1v-1zm2-4h2v1h-2v-1zm1-1h2v1h-2v-1zm1-1h2v1h-2v-1zm1-1h1v1h-1v-1zm-3 0h1v1h-1v-1zm3-5h1v4h-1v-4zm2 3h1v4h-1v-4zm-1 4h1v1h-1v-1zm2 1h1v1h-1v-1zm2-1h1v1h-1v-1zm2 1h2v1h-2v-1zm-1-2h1v1h-1v-1zM30 9h5v2h-5V9zm5 1h1v1h-1v-1zm-4 1h3v1h-3v-1zm1-3h5v1h-5V8zm2-1h2v1h-2V7zm-8-7h1v1h-1V0zm3 0h1v1h-1V0zm-2 1h1v2h-1V1zm3 1h1v4h-1V2zm-2 1h2v4h-2V3zm-6 1h6v3h-6V4zm3-1h2v1h-2V3zm-3 0h1v1h-1V3zm-2 3h2v4h-2V6zm1-1h1v1h-1V5zm1 2h3v1h-3V7zm2 2h2v2h-2V9zm1 2h1v1h-1v-1zm-6-5h1v1h-1V6zm0 3h1v1h-1V9zm4-1h1v2h-1V8z" fill="#4d5d31" class="gb-normal"/><path d="M31 4h1v5h-1V4zm1 1h1v3h-1V5zm1 1h1v2h-1V6zm-3 0h1v3h-1V6zm-1 1h1v2h-1V7zm-1 0h1v1h-1V7zm-3 0h2v1h-2V7zm-1 1h2v1h-2V8zm3 0h1v4h-1V8zm1 1h1v2h-1V9zm1 2h1v4h-1v-4zm-5 1h2v5h-2v-5zm2 1h1v4h-1v-4zm1 2h2v1h-2v-1zm1 1h1v1h-1v-1zm-1 1h1v1h-1v-1zm-3 1h3v1h-3v-1zm0-1h1v1h-1v-1zm-2-2h2v3h-2v-3zm-1 1h1v1h-1v-1zm0-4h1v3h-1v-3zm2-1h1v1h-1v-1zm-1-1h1v1h-1v-1zm-3 0h2v1h-2v-1zm-1-1h1v1h-1V9zm16 3h1v2h-1v-2zm-1 1h1v2h-1v-2zm-2 4h1v1h-1v-1zm-1 1h1v1h-1v-1zm-2 1h1v1h-1v-1zm-1 1h1v1h-1v-1zm-5-1h1v1h-1v-1zm-1 3h1v1h-1v-1zm0 3h2v2h-2v-2zm0 2h1v1h-1v-1zm-3 0h2v3h-2v-3zm16-9h1v3h-1v-3zm1 1h1v2h-1v-2zm1 0h1v1h-1v-1zm-3 1h1v1h-1v-1zm-3 3h4v1h-4v-1zm1-1h1v1h-1v-1zm1 2h3v1h-3v-1zm2 1h2v1h-2v-1zm1 1h2v1h-2v-1zm1 1h2v1h-2v-1zm0 1h1v3h-1v-3zm-1 1h1v2h-1v-2zm-4 1h2v1h-2v-1zm2 2h1v2h-1v-2zm1 1h1v2h-1v-2zm1 1h1v1h-1v-1zm-4 3h2v4h-2v-4zm-1 0h1v3h-1v-3zm2 4h2v3h-2v-3zm1-1h1v1h-1v-1zm0 4h2v4h-2v-4zm1-1h1v1h-1v-1zm-12-6h2v4h-2v-4zm2 0h1v2h-1v-2zm-2 4h1v1h-1v-1zm-1 1h2v6h-2v-6z" fill="#7d7f4c" class="gb-light"/></g></svg>