<svg viewBox="0 0 77 13" xmlns="http://www.w3.org/2000/svg"><title>blue_balls</title><g fill="none" fill-rule="evenodd"><path d="M1 12H0V0h2v11h73v2H1v-1zm68-2v1h4v-1h-4zm2-1h-2v1h2V9zm6 3h-2v1h2v-1z" fill="#2f3622" class="gb-dark"/><path d="M46 3h1v3h-1V3zm6 0h1v3h-1V3zm-4-2h3v1h-3V1zm0 6h3v1h-3V7zm-1-1h1v1h-1V6zm0-4h1v1h-1V2zm4 0h1v1h-1V2zm0 4h1v1h-1V6zM38 3h1v3h-1V3zm6 0h1v3h-1V3zm-4-2h3v1h-3V1zm0 6h3v1h-3V7zm-1-1h1v1h-1V6zm0-4h1v1h-1V2zm4 0h1v1h-1V2zm0 4h1v1h-1V6zM30 3h1v3h-1V3zm6 0h1v3h-1V3zm-4-2h3v1h-3V1zm0 6h3v1h-3V7zm-1-1h1v1h-1V6zm0-4h1v1h-1V2zm4 0h1v1h-1V2zm0 4h1v1h-1V6zM22 3h1v3h-1V3zm6 0h1v3h-1V3zm-4-2h3v1h-3V1zm0 6h3v1h-3V7zm-1-1h1v1h-1V6zm0-4h1v1h-1V2zm4 0h1v1h-1V2zm0 4h1v1h-1V6zM14 3h1v3h-1V3zm6 0h1v3h-1V3zm-4-2h3v1h-3V1zm0 6h3v1h-3V7zm-1-1h1v1h-1V6zm0-4h1v1h-1V2zm4 0h1v1h-1V2zm0 4h1v1h-1V6zm35-3h1v3h-1V3zm6 0h1v3h-1V3zm-4-2h3v1h-3V1zm0 6h3v1h-3V7zm-1-1h1v1h-1V6zm0-4h1v1h-1V2zm4 0h1v1h-1V2zm0 4h1v1h-1V6z" fill="#2f3622" class="gb-dark"/><path d="M55 5h5v1h-5V5zm1 1h3v1h-3V6z" fill="#7d7f4c" class="gb-light"/><path d="M56 2h3v1h-3V2zm1 1h3v1h-3V3zm-2 1h5v1h-5V4zm0-1h1v1h-1V3z" fill="#4d5d31" class="gb-normal"/></g></svg>
