<svg viewBox="0 0 28 28" xmlns="http://www.w3.org/2000/svg"><title>eevee_back</title><g fill="none" fill-rule="evenodd"><path d="M7 2h1v1H7V2zm0 1h1v1H7V3zm0 1h1v1H7V4zm0 1h1v1H7V5zm0 1h1v1H7V6zm1-4h1v1H8V2zm1 1h1v1H9V3zm1 1h1v1h-1V4zm12-2h1v1h-1V2zm1 0h1v1h-1V2zm-2 1h1v1h-1V3zm2 0h1v1h-1V3zm-3 1h1v1h-1V4zm3 0h1v1h-1V4zM11 5h1v1h-1V5zm8 0h1v1h-1V5zm4 0h1v1h-1V5zM6 7h1v1H6V7zM5 8h1v1H5V8zM4 9h1v1H4V9zm0 1h1v1H4v-1zm-1 2h1v1H3v-1zm0 1h1v1H3v-1zm0 1h1v1H3v-1zm-1 3h1v1H2v-1zm8 0h1v1h-1v-1zm0 1h1v1h-1v-1zm-7 2h1v1H3v-1zm9-14h1v1h-1V6zm6 0h1v1h-1V6zm-5 1h1v1h-1V7zm1 0h1v1h-1V7zm1 0h1v1h-1V7zm1 0h1v1h-1V7zm1 0h1v1h-1V7zm-1 1h1v1h-1V8zM8 7h1v1H8V7zm0 1h1v1H8V8zm4 0h1v1h-1V8zM8 9h1v1H8V9zm1 0h1v1H9V9zm2 0h1v1h-1V9zm-3 1h1v1H8v-1zm2 0h1v1h-1v-1zm-2 1h1v1H8v-1zm2 0h1v1h-1v-1zm-2 1h1v1H8v-1zm2 0h1v1h-1v-1zm-2 1h1v1H8v-1zm2 0h1v1h-1v-1zm-2 1h1v1H8v-1zm1 0h1v1H9v-1zm1 0h1v1h-1v-1zm-1 1h1v1H9v-1zm2 0h1v1h-1v-1zm1 1h1v1h-1v-1zm1 0h1v1h-1v-1zm1 0h1v1h-1v-1zm1 0h1v1h-1v-1zm1 0h1v1h-1v-1zm-2 4h1v1h-1v-1zm1 0h1v1h-1v-1zm1 0h1v1h-1v-1zm5-12h1v1h-1V8zm1 0h1v1h-1V8zm-1 1h1v1h-1V9zm0 3h1v1h-1v-1zm0 1h1v1h-1v-1zm0 1h1v1h-1v-1zm-1 1h1v1h-1v-1zm-3 1h1v1h-1v-1zm1 0h1v1h-1v-1zm1 0h1v1h-1v-1zm-1 1h1v1h-1v-1zm3 0h1v1h-1v-1zm-3 1h1v1h-1v-1zm1 1h1v1h-1v-1zm3 0h1v1h-1v-1zm-2 1h1v1h-1v-1zm3-14h1v1h-1V6zm-1 1h1v1h-1V7zm-2 2h1v1h-1V9zm-1 1h1v1h-1v-1zm1 0h1v1h-1v-1zm0 1h1v1h-1v-1zm0 5h1v1h-1v-1zm-9 3h1v1h-1v-1zm0 1h1v1h-1v-1zm2 0h1v1h-1v-1zm4 0h1v1h-1v-1zm1 0h1v1h-1v-1z" fill="#2f3622" class="gb-dark"/><path d="M22 20h1v1h-1v-1zm-3 0h1v1h-1v-1zm-9 0h1v1h-1v-1zm-2 0h1v1H8v-1zm-2 0h1v1H6v-1zm12-1h1v1h-1v-1zm-6 0h1v1h-1v-1zm-2 0h1v1h-1v-1zm-1 0h1v1H9v-1zm-6 0h1v1H3v-1zm19-1h1v1h-1v-1zM9 18h1v1H9v-1zm-7 0h1v1H2v-1zm7-1h1v1H9v-1zm0-1h1v1H9v-1zm-1 0h1v1H8v-1zm-6 0h1v1H2v-1zm17-1h1v1h-1v-1zm-1 0h1v1h-1v-1zm-1 0h1v1h-1v-1zm-9 0h1v1H8v-1zm-5 0h1v1H3v-1zm17-1h1v1h-1v-1zm-1 0h1v1h-1v-1zm-1 0h1v1h-1v-1zm2-1h1v1h-1v-1zm-1 0h1v1h-1v-1zm1-1h1v1h-1v-1zm-1-1h1v1h-1v-1zM3 11h1v1H3v-1zm15-1h1v1h-1v-1zm1-1h1v1h-1V9zm-9 0h1v1h-1V9zm10-1h1v1h-1V8zm-9 0h1v1h-1V8zm-1 0h1v1h-1V8zm13-1h1v1h-1V7zm-2 0h1v1h-1V7zm-9 0h1v1h-1V7zm-1 0h1v1h-1V7zm-1 0h1v1h-1V7zm12-1h1v1h-1V6zM11 6h1v1h-1V6z" fill="#4d5d31" class="gb-normal"/><path d="M21 20h1v1h-1v-1zm-9 0h1v1h-1v-1zm-3 0h1v1H9v-1zm-2 0h1v1H7v-1zm-2 0h1v1H5v-1zm-1 0h1v1H4v-1zm17-1h1v1h-1v-1zm-4 0h1v1h-1v-1zm-4 0h1v1h-1v-1zm-5 0h1v1H8v-1zm-1 0h1v1H7v-1zm-1 0h1v1H6v-1zm-1 0h1v1H5v-1zm-1 0h1v1H4v-1zm7-1h1v1h-1v-1zm-3 0h1v1H8v-1zm-1 0h1v1H7v-1zm-1 0h1v1H6v-1zm-1 0h1v1H5v-1zm-1 0h1v1H4v-1zm-1 0h1v1H3v-1zm14-1h1v1h-1v-1zm-9 0h1v1H8v-1zm-1 0h1v1H7v-1zm-1 0h1v1H6v-1zm-1 0h1v1H5v-1zm-1 0h1v1H4v-1zm-1 0h1v1H3v-1zm7-1h1v1h-1v-1zm-3 0h1v1H7v-1zm-1 0h1v1H6v-1zm-1 0h1v1H5v-1zm-1 0h1v1H4v-1zm-1 0h1v1H3v-1zm13-1h1v1h-1v-1zm-1 0h1v1h-1v-1zm-1 0h1v1h-1v-1zm-1 0h1v1h-1v-1zm-1 0h1v1h-1v-1zm-5 0h1v1H7v-1zm-1 0h1v1H6v-1zm-1 0h1v1H5v-1zm-1 0h1v1H4v-1zm13-1h1v1h-1v-1zm-1 0h1v1h-1v-1zm-1 0h1v1h-1v-1zm-1 0h1v1h-1v-1zm-1 0h1v1h-1v-1zm-1 0h1v1h-1v-1zm-1 0h1v1h-1v-1zm-4 0h1v1H7v-1zm-1 0h1v1H6v-1zm-1 0h1v1H5v-1zm13-1h1v1h-1v-1zm-1 0h1v1h-1v-1zm-1 0h1v1h-1v-1zm-1 0h1v1h-1v-1zm-1 0h1v1h-1v-1zm-1 0h1v1h-1v-1zm-1 0h1v1h-1v-1zm-1 0h1v1h-1v-1zm-4 0h1v1H7v-1zm12-1h1v1h-1v-1zm-1 0h1v1h-1v-1zm-1 0h1v1h-1v-1zm-1 0h1v1h-1v-1zm-1 0h1v1h-1v-1zm-1 0h1v1h-1v-1zm-1 0h1v1h-1v-1zm-1 0h1v1h-1v-1zm-1 0h1v1h-1v-1zm7-1h1v1h-1v-1zm-2 0h1v1h-1v-1zm-2 0h1v1h-1v-1zm-1 0h1v1h-1v-1zm-1 0h1v1h-1v-1zm-1 0h1v1h-1v-1zm6-1h1v1h-1v-1zm-1 0h1v1h-1v-1zm-1 0h1v1h-1v-1zm-1 0h1v1h-1v-1zm-3 0h1v1h-1v-1zm7-1h1v1h-1V9zm-1 0h1v1h-1V9zm-1 0h1v1h-1V9zm-1 0h1v1h-1V9zm4-1h1v1h-1V8zm-1 0h1v1h-1V8zm-1 0h1v1h-1V8zm-2 0h1v1h-1V8zM9 8h1v1H9V8zm11-1h1v1h-1V7zm-1 0h1v1h-1V7zm-1 0h1v1h-1V7zM9 7h1v1H9V7zm12-1h1v1h-1V6zm-1 0h1v1h-1V6zm-1 0h1v1h-1V6zm-9 0h1v1h-1V6zM9 6h1v1H9V6zM8 6h1v1H8V6zm2-1h1v1h-1V5zM9 5h1v1H9V5z" fill="#7d7f4c" class="gb-light"/></g></svg>
