<svg viewBox="0 0 56 56" xmlns="http://www.w3.org/2000/svg"><title>eevee_front</title><g fill="none" fill-rule="evenodd"><path d="M9 17h1v1H9v-1zm-1 1h1v1H8v-1zm2 0h1v1h-1v-1zm1 1h1v1h-1v-1zm-2 1h1v1H9v-1zm4 0h1v1h-1v-1zm2 1h1v1h-1v-1zm-5 1h1v1h-1v-1zm3 1h1v1h-1v-1zm3 0h1v1h-1v-1zm-5 1h1v1h-1v-1zm2 0h1v1h-1v-1zm1 0h1v1h-1v-1zm21 0h1v1h-1v-1zm-21 1h1v1h-1v-1zm3 0h1v1h-1v-1zm3 0h1v1h-1v-1zm1 0h1v1h-1v-1zm2 0h1v1h-1v-1zm1 0h1v1h-1v-1zm-12 1h1v1h-1v-1zm3 0h1v1h-1v-1zm3 0h1v1h-1v-1zm8 0h1v1h-1v-1zm-13 2h1v1h-1v-1zm2 1h1v1h-1v-1zm2 1h1v1h-1v-1zm8 0h1v1h-1v-1zm-10 1h1v1h-1v-1zm0 1h1v1h-1v-1zm3 0h1v1h-1v-1zm6 0h1v1h-1v-1zm2 0h1v1h-1v-1zm1 0h1v1h-1v-1zm-10 1h1v1h-1v-1zm1 0h1v1h-1v-1zm6 0h1v1h-1v-1zm1 0h1v1h-1v-1zm1 0h1v1h-1v-1zm1 0h1v1h-1v-1zm-10 1h1v1h-1v-1zm8 0h1v1h-1v-1zm1 0h1v1h-1v-1zm-6 1h1v1h-1v-1zm0 2h1v1h-1v-1zm1 0h1v1h-1v-1zm-6 1h1v1h-1v-1zm2 1h1v1h-1v-1zm3 1h1v1h-1v-1zm1 0h1v1h-1v-1zm1 0h1v1h-1v-1zm1 0h1v1h-1v-1zm1 0h1v1h-1v-1zm1 0h1v1h-1v-1zm-13 1h1v1h-1v-1zm5 0h1v1h-1v-1zm-5 1h1v1h-1v-1zm4 1h1v1h-1v-1zm18 0h1v1h-1v-1zm0 1h1v1h-1v-1zm1 1h1v1h-1v-1zm0 1h1v1h-1v-1zm0 1h1v1h-1v-1zm0 1h1v1h-1v-1zm7-30h1v1h-1v-1zm1 0h1v1h-1v-1zm1 0h1v1h-1v-1zm-4 1h1v1h-1v-1zm4 0h1v1h-1v-1zm-7 1h1v1h-1v-1zm7 0h1v1h-1v-1zm-10 1h1v1h-1v-1zm6 0h1v1h-1v-1zm1 0h1v1h-1v-1zm2 0h1v1h-1v-1zm-11 1h1v1h-1v-1zm5 0h1v1h-1v-1zm1 0h1v1h-1v-1zm1 0h1v1h-1v-1zm1 0h1v1h-1v-1zm3 0h1v1h-1v-1zm-8 1h1v1h-1v-1zm1 0h1v1h-1v-1zm1 0h1v1h-1v-1zm1 0h1v1h-1v-1zm1 0h1v1h-1v-1zm3 0h1v1h-1v-1zm-12 1h1v1h-1v-1zm3 0h1v1h-1v-1zm1 0h1v1h-1v-1zm2 0h1v1h-1v-1zm1 0h1v1h-1v-1zm1 0h1v1h-1v-1zm3 0h1v1h-1v-1zm-9 1h1v1h-1v-1zm1 0h1v1h-1v-1zm1 0h1v1h-1v-1zm1 0h1v1h-1v-1zm1 0h1v1h-1v-1zm1 0h1v1h-1v-1zm3 0h1v1h-1v-1zm-9 1h1v1h-1v-1zm1 0h1v1h-1v-1zm1 0h1v1h-1v-1zm1 0h1v1h-1v-1zm1 0h1v1h-1v-1zm1 0h1v1h-1v-1zm3 0h1v1h-1v-1zm-9 1h1v1h-1v-1zm1 0h1v1h-1v-1zm1 0h1v1h-1v-1zm1 0h1v1h-1v-1zm1 0h1v1h-1v-1zm4 0h1v1h-1v-1zm-7 1h1v1h-1v-1zm5 0h1v1h-1v-1zm1 0h1v1h-1v-1zm4 0h1v1h-1v-1zm-7 1h1v1h-1v-1zm1 0h1v1h-1v-1zm6 0h1v1h-1v-1zm-10 1h1v1h-1v-1zm1 0h1v1h-1v-1zm1 0h1v1h-1v-1zm8 0h1v1h-1v-1zm2 0h1v1h-1v-1zm-12 1h1v1h-1v-1zm13 0h1v1h-1v-1zm-13 1h1v1h-1v-1zm9 0h1v1h-1v-1zm-9 1h1v1h-1v-1zm14 0h1v1h-1v-1zm-14 1h1v1h-1v-1zm8 0h1v1h-1v-1zm-2 1h1v1h-1v-1zm-1 1h1v1h-1v-1zm10 0h1v1h-1v-1zm-16 1h1v1h-1v-1zm5 0h1v1h-1v-1zm11 0h1v1h-1v-1zm-15 1h1v1h-1v-1zm3 0h1v1h-1v-1zm12 0h1v1h-1v-1zm-18 1h1v1h-1v-1zm4 0h1v1h-1v-1zm14 0h1v1h-1v-1zm-13 1h1v1h-1v-1zm13 0h1v1h-1v-1zm-13 1h1v1h-1v-1zm0 1h1v1h-1v-1zm12 1h1v1h-1v-1zm-13 2h1v1h-1v-1zm12 0h1v1h-1v-1zm-13 1h1v1h-1v-1zm11 1h1v1h-1v-1zm-11 1h1v1h-1v-1zm9 0h1v1h-1v-1zm-9 1h1v1h-1v-1zm5 0h1v1h-1v-1zm1 0h1v1h-1v-1zm-5 1h1v1h-1v-1zm4 0h1v1h-1v-1zm-4 1h1v1h-1v-1zm4 0h1v1h-1v-1zm-4 1h1v1h-1v-1zm3 0h1v1h-1v-1zm-2 1h1v1h-1v-1zm1 0h1v1h-1v-1zm-21-8h1v1h-1v-1zm2 0h1v1h-1v-1zm0 1h1v1h-1v-1zm-1-11h1v1h-1v-1zm13 10h1v1h-1v-1zm0 1h1v1h-1v-1zm-15 1h1v1h-1v-1zm5 0h1v1h-1v-1zm9 0h1v1h-1v-1zm2 0h1v1h-1v-1zm1 0h1v1h-1v-1zm-17 1h1v1h-1v-1zm6 0h1v1h-1v-1zm6 0h1v1h-1v-1zm-7 1h1v1h-1v-1zm1 0h1v1h-1v-1zm2 0h1v1h-1v-1zm1 0h1v1h-1v-1zm1 0h1v1h-1v-1zm2 0h1v1h-1v-1zm5 0h1v1h-1v-1zm1 0h1v1h-1v-1zm-17 1h1v1h-1v-1zm3 0h1v1h-1v-1zm1 0h1v1h-1v-1zm5 0h1v1h-1v-1zm6 0h1v1h-1v-1zm1 0h1v1h-1v-1zm-14 1h1v1h-1v-1zm7 0h1v1h-1v-1zm6 0h1v1h-1v-1zm1 0h1v1h-1v-1zm-7 1h1v1h-1v-1zm5 0h1v1h-1v-1zm1 0h1v1h-1v-1zm-7 1h1v1h-1v-1zm6 0h1v1h-1v-1zm-4 1h1v1h-1v-1zm1 0h1v1h-1v-1zm1 0h1v1h-1v-1z" fill="#2f3622" class="gb-dark"/><path d="M8 17h1v1H8v-1zm0 2h1v1H8v-1zm2 1h1v1h-1v-1zm4 0h1v1h-1v-1zm22 0h1v1h-1v-1zM9 21h1v1H9v-1zm26 0h1v1h-1v-1zm-22 1h1v1h-1v-1zm3 0h1v1h-1v-1zm17 0h1v1h-1v-1zm3 0h1v1h-1v-1zm-26 1h1v1h-1v-1zm4 0h1v1h-1v-1zm17 0h1v1h-1v-1zm3 0h1v1h-1v-1zm-17 1h1v1h-1v-1zm15 0h1v1h-1v-1zm-3 1h1v1h-1v-1zm2 0h1v1h-1v-1zm-3 1h1v1h-1v-1zm2 0h1v1h-1v-1zm7 0h1v1h-1v-1zm-23 3h1v1h-1v-1zm1 1h1v1h-1v-1zm9 4h1v1h-1v-1zm-3 1h1v1h-1v-1zm-9-16h1v1h-1v-1zm-1 2h1v1h-1v-1zm1 0h1v1h-1v-1zm0 1h1v1h-1v-1zm0 1h1v1h-1v-1zm-1 2h1v1h-1v-1zm2 0h1v1h-1v-1zm2 0h1v1h-1v-1zm-1 1h1v1h-1v-1zm5 0h1v1h-1v-1zm3 0h1v1h-1v-1zm3 0h1v1h-1v-1zm-13 1h1v1h-1v-1zm3 0h1v1h-1v-1zm2 0h1v1h-1v-1zm10 0h1v1h-1v-1zm2 0h1v1h-1v-1zm-5 2h1v1h-1v-1zm-1 1h1v1h-1v-1zm3 0h1v1h-1v-1zm-10 1h1v1h-1v-1zm2 0h1v1h-1v-1zm6 0h1v1h-1v-1zm3 0h1v1h-1v-1zm-11 1h1v1h-1v-1zm-1 1h1v1h-1v-1zm1 0h1v1h-1v-1zm14 0h1v1h-1v-1zm-16 1h1v1h-1v-1zm2 0h1v1h-1v-1zm2 0h1v1h-1v-1zm9 0h1v1h-1v-1zm3 0h1v1h-1v-1zm-5 1h1v1h-1v-1zm1 0h1v1h-1v-1zm5 0h1v1h-1v-1zm-17 1h1v1h-1v-1zm9 0h1v1h-1v-1zm-8 1h1v1h-1v-1zm4 0h1v1h-1v-1zm3 0h1v1h-1v-1zm6 0h1v1h-1v-1zm-14 1h1v1h-1v-1zm2 0h1v1h-1v-1zm1 0h1v1h-1v-1zm9 0h1v1h-1v-1zm1 0h1v1h-1v-1zm-14 1h1v1h-1v-1zm11 0h1v1h-1v-1zm1 0h1v1h-1v-1zm2 0h1v1h-1v-1zm6 0h1v1h-1v-1zm1 0h1v1h-1v-1zm-22 1h1v1h-1v-1zm4 2h1v1h-1v-1zm-4 1h1v1h-1v-1zm1 1h1v1h-1v-1zm2 0h1v1h-1v-1zm20 0h1v1h-1v-1zm-21 1h1v1h-1v-1zm-2 1h1v1h-1v-1zm32 0h1v1h-1v-1zm-19 1h1v1h-1v-1zm2 0h1v1h-1v-1zm4 0h1v1h-1v-1zm1 0h1v1h-1v-1zm1 0h1v1h-1v-1zm1 0h1v1h-1v-1zm-22 2h1v1h-1v-1zm2 0h1v1h-1v-1zm0 1h1v1h-1v-1zm0 1h1v1h-1v-1zm2 0h1v1h-1v-1zm8 1h1v1h-1v-1zm0 1h1v1h-1v-1zm15-34h1v1h-1v-1zm2 0h1v1h-1v-1zm2 0h1v1h-1v-1zm-5 1h1v1h-1v-1zm4 0h1v1h-1v-1zm1 0h1v1h-1v-1zm-4 1h1v1h-1v-1zm3 0h1v1h-1v-1zm-1 1h1v1h-1v-1zm1 0h1v1h-1v-1zm-2 1h1v1h-1v-1zm1 0h1v1h-1v-1zm-2 1h1v1h-1v-1zm1 0h1v1h-1v-1zm-2 1h1v1h-1v-1zm1 0h1v1h-1v-1zm-1 1h1v1h-1v-1zm-3 1h1v1h-1v-1zm1 0h1v1h-1v-1zm1 0h1v1h-1v-1zm4 0h1v1h-1v-1zm-9 1h1v1h-1v-1zm1 0h1v1h-1v-1zm1 0h1v1h-1v-1zm1 0h1v1h-1v-1zm7 0h1v1h-1v-1zm-11 1h1v1h-1v-1zm1 0h1v1h-1v-1zm1 0h1v1h-1v-1zm10 0h1v1h-1v-1zm-13 1h1v1h-1v-1zm0 1h1v1h-1v-1zm11 0h1v1h-1v-1zm-11 1h1v1h-1v-1zm15 0h1v1h-1v-1zm-16 1h1v1h-1v-1zm11 0h1v1h-1v-1zm-11 1h1v1h-1v-1zm16 0h1v1h-1v-1zm-16 1h1v1h-1v-1zm1 0h1v1h-1v-1zm8 0h1v1h-1v-1zm8 0h1v1h-1v-1zm-18 1h1v1h-1v-1zm1 0h1v1h-1v-1zm1 0h1v1h-1v-1zm-4 1h1v1h-1v-1zm1 0h1v1h-1v-1zm2 0h1v1h-1v-1zm-5 1h1v1h-1v-1zm1 0h1v1h-1v-1zm3 0h1v1h-1v-1zm-10 1h1v1h-1v-1zm1 0h1v1h-1v-1zm1 0h1v1h-1v-1zm1 0h1v1h-1v-1zm1 0h1v1h-1v-1zm1 0h1v1h-1v-1zm3 0h1v1h-1v-1zm-8 1h1v1h-1v-1zm1 0h1v1h-1v-1zm7 0h1v1h-1v-1zm19 1h1v1h-1v-1zm1 0h1v1h-1v-1zm-12 1h1v1h-1v-1zm11 0h1v1h-1v-1zm-12 1h1v1h-1v-1zm11 0h1v1h-1v-1zm-17 1h1v1h-1v-1zm5 0h1v1h-1v-1zm1 0h1v1h-1v-1zm11 0h1v1h-1v-1zm1 0h1v1h-1v-1zm-14 1h1v1h-1v-1zm2 0h1v1h-1v-1zm1 0h1v1h-1v-1zm8 0h1v1h-1v-1zm1 0h1v1h-1v-1zm-27 1h1v1h-1v-1zm1 0h1v1h-1v-1zm9 0h1v1h-1v-1zm2 0h1v1h-1v-1zm4 0h1v1h-1v-1zm1 0h1v1h-1v-1zm1 0h1v1h-1v-1zm5 0h1v1h-1v-1zm1 0h1v1h-1v-1zm1 0h1v1h-1v-1zm1 0h1v1h-1v-1zm1 0h1v1h-1v-1zm-27 1h1v1h-1v-1zm3 0h1v1h-1v-1zm11 0h1v1h-1v-1zm6 0h1v1h-1v-1zm1 0h1v1h-1v-1zm1 0h1v1h-1v-1zm1 0h1v1h-1v-1zm1 0h1v1h-1v-1zm1 0h1v1h-1v-1zm2 0h1v1h-1v-1zm-26 1h1v1h-1v-1zm8 0h1v1h-1v-1zm1 0h1v1h-1v-1zm1 0h1v1h-1v-1zm1 0h1v1h-1v-1zm1 0h1v1h-1v-1zm1 0h1v1h-1v-1zm2 0h1v1h-1v-1zm1 0h1v1h-1v-1zm1 0h1v1h-1v-1zm2 0h1v1h-1v-1zm1 0h1v1h-1v-1zm1 0h1v1h-1v-1zm1 0h1v1h-1v-1zm2 0h1v1h-1v-1zm-22 1h1v1h-1v-1zm4 0h1v1h-1v-1zm2 0h1v1h-1v-1zm1 0h1v1h-1v-1zm1 0h1v1h-1v-1zm1 0h1v1h-1v-1zm4 0h1v1h-1v-1zm1 0h1v1h-1v-1zm1 0h1v1h-1v-1zm1 0h1v1h-1v-1zm3 0h1v1h-1v-1zm-13 1h1v1h-1v-1zm1 0h1v1h-1v-1zm1 0h1v1h-1v-1zm6 0h1v1h-1v-1zm1 0h1v1h-1v-1zm1 0h1v1h-1v-1zm-10 1h1v1h-1v-1zm1 0h1v1h-1v-1zm1 0h1v1h-1v-1zm6 0h1v1h-1v-1zm1 0h1v1h-1v-1zm1 0h1v1h-1v-1zm-14 1h1v1h-1v-1zm4 0h1v1h-1v-1zm1 0h1v1h-1v-1zm3 0h1v1h-1v-1zm4 0h1v1h-1v-1zm1 0h1v1h-1v-1zm2 0h1v1h-1v-1zm-11 1h1v1h-1v-1zm1 0h1v1h-1v-1zm2 0h1v1h-1v-1zm4 0h1v1h-1v-1zm3 0h1v1h-1v-1zm-13 1h1v1h-1v-1zm4 0h1v1h-1v-1zm1 0h1v1h-1v-1z" fill="#4d5d31" class="gb-normal"/><path d="M9 18h1v1H9v-1zm0 1h1v1H9v-1zm1 0h1v1h-1v-1zm1 1h1v1h-1v-1zm1 0h1v1h-1v-1zm27 0h1v1h-1v-1zm1 0h1v1h-1v-1zm-30 1h1v1h-1v-1zm3 0h1v1h-1v-1zm1 0h1v1h-1v-1zm22 0h1v1h-1v-1zm1 0h1v1h-1v-1zm1 0h1v1h-1v-1zm-27 1h1v1h-1v-1zm3 0h1v1h-1v-1zm1 0h1v1h-1v-1zm19 0h1v1h-1v-1zm1 0h1v1h-1v-1zm-24 1h1v1h-1v-1zm4 0h1v1h-1v-1zm17 0h1v1h-1v-1zm1 0h1v1h-1v-1zm-21 1h1v1h-1v-1zm3 0h1v1h-1v-1zm1 0h1v1h-1v-1zm15 0h1v1h-1v-1zm-19 1h1v1h-1v-1zm4 0h1v1h-1v-1zm14 0h1v1h-1v-1zm-17 1h1v1h-1v-1zm3 0h1v1h-1v-1zm1 0h1v1h-1v-1zm3 0h1v1h-1v-1zm1 0h1v1h-1v-1zm2 0h1v1h-1v-1zm1 0h1v1h-1v-1zm5 0h1v1h-1v-1zm-16 1h1v1h-1v-1zm1 0h1v1h-1v-1zm2 0h1v1h-1v-1zm2 0h1v1h-1v-1zm1 0h1v1h-1v-1zm1 0h1v1h-1v-1zm1 0h1v1h-1v-1zm1 0h1v1h-1v-1zm1 0h1v1h-1v-1zm1 0h1v1h-1v-1zm1 0h1v1h-1v-1zm1 0h1v1h-1v-1zm2 0h1v1h-1v-1zm-14 1h1v1h-1v-1zm1 0h1v1h-1v-1zm1 0h1v1h-1v-1zm1 0h1v1h-1v-1zm1 0h1v1h-1v-1zm1 0h1v1h-1v-1zm1 0h1v1h-1v-1zm1 0h1v1h-1v-1zm1 0h1v1h-1v-1zm1 0h1v1h-1v-1zm1 0h1v1h-1v-1zm1 0h1v1h-1v-1zm1 0h1v1h-1v-1zm1 0h1v1h-1v-1zm1 0h1v1h-1v-1zm1 0h1v1h-1v-1zm1 0h1v1h-1v-1zm-14 1h1v1h-1v-1zm1 0h1v1h-1v-1zm1 0h1v1h-1v-1zm1 0h1v1h-1v-1zm1 0h1v1h-1v-1zm1 0h1v1h-1v-1zm1 0h1v1h-1v-1zm1 0h1v1h-1v-1zm2 0h1v1h-1v-1zm1 0h1v1h-1v-1zm1 0h1v1h-1v-1zm1 0h1v1h-1v-1zm1 0h1v1h-1v-1zm1 0h1v1h-1v-1zm-14 1h1v1h-1v-1zm2 0h1v1h-1v-1zm1 0h1v1h-1v-1zm1 0h1v1h-1v-1zm1 0h1v1h-1v-1zm1 0h1v1h-1v-1zm2 0h1v1h-1v-1zm3 0h1v1h-1v-1zm1 0h1v1h-1v-1zm1 0h1v1h-1v-1zm5 0h1v1h-1v-1zm-15 1h1v1h-1v-1zm1 0h1v1h-1v-1zm1 0h1v1h-1v-1zm1 0h1v1h-1v-1zm1 0h1v1h-1v-1zm3 0h1v1h-1v-1zm2 0h1v1h-1v-1zm1 0h1v1h-1v-1zm-10 1h1v1h-1v-1zm1 0h1v1h-1v-1zm1 0h1v1h-1v-1zm1 0h1v1h-1v-1zm1 0h1v1h-1v-1zm5 0h1v1h-1v-1zm1 0h1v1h-1v-1zm-10 1h1v1h-1v-1zm1 0h1v1h-1v-1zm1 0h1v1h-1v-1zm1 0h1v1h-1v-1zm1 0h1v1h-1v-1zm5 0h1v1h-1v-1zm-13 1h1v1h-1v-1zm4 0h1v1h-1v-1zm1 0h1v1h-1v-1zm1 0h1v1h-1v-1zm1 0h1v1h-1v-1zm1 0h1v1h-1v-1zm5 0h1v1h-1v-1zm-13 1h1v1h-1v-1zm1 0h1v1h-1v-1zm1 0h1v1h-1v-1zm1 0h1v1h-1v-1zm1 0h1v1h-1v-1zm3 0h1v1h-1v-1zm1 0h1v1h-1v-1zm1 0h1v1h-1v-1zm3 0h1v1h-1v-1zm1 0h1v1h-1v-1zm11 0h1v1h-1v-1zm-24 1h1v1h-1v-1zm1 0h1v1h-1v-1zm1 0h1v1h-1v-1zm1 0h1v1h-1v-1zm1 0h1v1h-1v-1zm1 0h1v1h-1v-1zm1 0h1v1h-1v-1zm1 0h1v1h-1v-1zm2 0h1v1h-1v-1zm1 0h1v1h-1v-1zm1 0h1v1h-1v-1zm1 0h1v1h-1v-1zm10 0h1v1h-1v-1zm1 0h1v1h-1v-1zm1 0h1v1h-1v-1zm1 0h1v1h-1v-1zm-24 1h1v1h-1v-1zm1 0h1v1h-1v-1zm1 0h1v1h-1v-1zm5 0h1v1h-1v-1zm1 0h1v1h-1v-1zm1 0h1v1h-1v-1zm11 0h1v1h-1v-1zm1 0h1v1h-1v-1zm1 0h1v1h-1v-1zm1 0h1v1h-1v-1zm1 0h1v1h-1v-1zm-22 1h1v1h-1v-1zm1 0h1v1h-1v-1zm1 0h1v1h-1v-1zm1 0h1v1h-1v-1zm1 0h1v1h-1v-1zm1 0h1v1h-1v-1zm6 0h1v1h-1v-1zm1 0h1v1h-1v-1zm5 0h1v1h-1v-1zm1 0h1v1h-1v-1zm1 0h1v1h-1v-1zm1 0h1v1h-1v-1zm1 0h1v1h-1v-1zm1 0h1v1h-1v-1zm1 0h1v1h-1v-1zm3 0h1v1h-1v-1zm1 0h1v1h-1v-1zm-15 1h1v1h-1v-1zm1 0h1v1h-1v-1zm4 0h1v1h-1v-1zm1 0h1v1h-1v-1zm1 0h1v1h-1v-1zm1 0h1v1h-1v-1zm1 0h1v1h-1v-1zm1 0h1v1h-1v-1zm1 0h1v1h-1v-1zm1 0h1v1h-1v-1zm1 0h1v1h-1v-1zm1 0h1v1h-1v-1zm1 0h1v1h-1v-1zm-28 1h1v1h-1v-1zm13 0h1v1h-1v-1zm1 0h1v1h-1v-1zm1 0h1v1h-1v-1zm2 0h1v1h-1v-1zm1 0h1v1h-1v-1zm1 0h1v1h-1v-1zm1 0h1v1h-1v-1zm1 0h1v1h-1v-1zm1 0h1v1h-1v-1zm1 0h1v1h-1v-1zm1 0h1v1h-1v-1zm1 0h1v1h-1v-1zm1 0h1v1h-1v-1zm1 0h1v1h-1v-1zm1 0h1v1h-1v-1zm-29 1h1v1h-1v-1zm4 0h1v1h-1v-1zm1 0h1v1h-1v-1zm1 0h1v1h-1v-1zm1 0h1v1h-1v-1zm1 0h1v1h-1v-1zm1 0h1v1h-1v-1zm6 0h1v1h-1v-1zm1 0h1v1h-1v-1zm2 0h1v1h-1v-1zm1 0h1v1h-1v-1zm1 0h1v1h-1v-1zm1 0h1v1h-1v-1zm1 0h1v1h-1v-1zm1 0h1v1h-1v-1zm1 0h1v1h-1v-1zm1 0h1v1h-1v-1zm1 0h1v1h-1v-1zm1 0h1v1h-1v-1zm1 0h1v1h-1v-1zm-29 1h1v1h-1v-1zm6 0h1v1h-1v-1zm1 0h1v1h-1v-1zm1 0h1v1h-1v-1zm1 0h1v1h-1v-1zm1 0h1v1h-1v-1zm1 0h1v1h-1v-1zm5 0h1v1h-1v-1zm1 0h1v1h-1v-1zm3 0h1v1h-1v-1zm1 0h1v1h-1v-1zm1 0h1v1h-1v-1zm1 0h1v1h-1v-1zm1 0h1v1h-1v-1zm1 0h1v1h-1v-1zm1 0h1v1h-1v-1zm1 0h1v1h-1v-1zm1 0h1v1h-1v-1zm1 0h1v1h-1v-1zm-31 1h1v1h-1v-1zm1 0h1v1h-1v-1zm1 0h1v1h-1v-1zm9 0h1v1h-1v-1zm1 0h1v1h-1v-1zm1 0h1v1h-1v-1zm5 0h1v1h-1v-1zm1 0h1v1h-1v-1zm3 0h1v1h-1v-1zm1 0h1v1h-1v-1zm1 0h1v1h-1v-1zm1 0h1v1h-1v-1zm1 0h1v1h-1v-1zm1 0h1v1h-1v-1zm1 0h1v1h-1v-1zm1 0h1v1h-1v-1zm1 0h1v1h-1v-1zm-29 1h1v1h-1v-1zm4 0h1v1h-1v-1zm7 0h1v1h-1v-1zm1 0h1v1h-1v-1zm4 0h1v1h-1v-1zm1 0h1v1h-1v-1zm5 0h1v1h-1v-1zm1 0h1v1h-1v-1zm1 0h1v1h-1v-1zm1 0h1v1h-1v-1zm1 0h1v1h-1v-1zm1 0h1v1h-1v-1zm1 0h1v1h-1v-1zm1 0h1v1h-1v-1zm-26 1h1v1h-1v-1zm8 0h1v1h-1v-1zm1 0h1v1h-1v-1zm4 0h1v1h-1v-1zm6 0h1v1h-1v-1zm1 0h1v1h-1v-1zm1 0h1v1h-1v-1zm1 0h1v1h-1v-1zm1 0h1v1h-1v-1zm1 0h1v1h-1v-1zm-28 1h1v1h-1v-1zm1 0h1v1h-1v-1zm10 0h1v1h-1v-1zm1 0h1v1h-1v-1zm4 0h1v1h-1v-1zm1 0h1v1h-1v-1zm6 0h1v1h-1v-1zm1 0h1v1h-1v-1zm1 0h1v1h-1v-1zm-25 1h1v1h-1v-1zm1 0h1v1h-1v-1zm1 0h1v1h-1v-1zm6 0h1v1h-1v-1zm1 0h1v1h-1v-1zm1 0h1v1h-1v-1zm1 0h1v1h-1v-1zm-11 1h1v1h-1v-1zm1 0h1v1h-1v-1zm1 0h1v1h-1v-1zm1 0h1v1h-1v-1zm3 0h1v1h-1v-1zm1 0h1v1h-1v-1zm1 0h1v1h-1v-1zm1 0h1v1h-1v-1zm1 0h1v1h-1v-1zm-10 1h1v1h-1v-1zm2 0h1v1h-1v-1zm1 0h1v1h-1v-1zm-1 1h1v1h-1v-1zm9 0h1v1h-1v-1z" fill="#7d7f4c" class="gb-light"/></g></svg>
