<svg viewBox="0 0 56 56" xmlns="http://www.w3.org/2000/svg"><title>pikachu_front</title><g fill="none" fill-rule="evenodd"><path d="M39 11h1v1h-1v-1zm1 0h1v1h-1v-1zm1 0h1v1h-1v-1zm1 0h1v1h-1v-1zm-7 1h1v1h-1v-1zm1 0h1v1h-1v-1zm5 0h1v1h-1v-1zm1 0h1v1h-1v-1zm-11 1h1v1h-1v-1zm1 0h1v1h-1v-1zm9 0h1v1h-1v-1zm-1 1h1v1h-1v-1zm-1 1h1v1h-1v-1zm-2 1h1v1h-1v-1zM9 8h1v1H9V8zm1 0h1v1h-1V8zM9 9h1v1H9V9zm1 0h1v1h-1V9zm1 0h1v1h-1V9zm1 0h1v1h-1V9zm-2 1h1v1h-1v-1zm1 0h1v1h-1v-1zm3 0h1v1h-1v-1zm-4 1h1v1h-1v-1zm1 0h1v1h-1v-1zm4 0h1v1h-1v-1zm-4 1h1v1h-1v-1zm5 0h1v1h-1v-1zm1 1h1v1h-1v-1zm5 0h1v1h-1v-1zm1 0h1v1h-1v-1zm1 0h1v1h-1v-1zm1 0h1v1h-1v-1zm1 0h1v1h-1v-1zm-15 1h1v1h-1v-1zm1 1h1v1h-1v-1zm1 1h1v1h-1v-1zm22 1h1v1h-1v-1zm-21 1h1v1h-1v-1zm20 0h1v1h-1v-1zm-17 1h1v1h-1v-1zm1 0h1v1h-1v-1zm11 0h1v1h-1v-1zm1 0h1v1h-1v-1zm15 0h1v1h-1v-1zm1 0h1v1h-1v-1zm-30 1h1v1h-1v-1zm2 0h1v1h-1v-1zm1 0h1v1h-1v-1zm9 0h1v1h-1v-1zm2 0h1v1h-1v-1zm1 0h1v1h-1v-1zm13 0h1v1h-1v-1zm2 0h1v1h-1v-1zm-33 1h1v1h-1v-1zm3 0h1v1h-1v-1zm1 0h1v1h-1v-1zm1 0h1v1h-1v-1zm1 0h1v1h-1v-1zm9 0h1v1h-1v-1zm1 0h1v1h-1v-1zm1 0h1v1h-1v-1zm1 0h1v1h-1v-1zm4 0h1v1h-1v-1zm8 0h1v1h-1v-1zm3 0h1v1h-1v-1zm-29 1h1v1h-1v-1zm1 0h1v1h-1v-1zm11 0h1v1h-1v-1zm1 0h1v1h-1v-1zm12 0h1v1h-1v-1zm4 0h1v1h-1v-1zm-24 1h1v1h-1v-1zm19 0h1v1h-1v-1zm5 0h1v1h-1v-1zm-34 1h1v1h-1v-1zm24 0h1v1h-1v-1zm4 0h1v1h-1v-1zm6 0h1v1h-1v-1zm-34 1h1v1h-1v-1zm24 0h1v1h-1v-1zm3 0h1v1h-1v-1zm7 0h1v1h-1v-1zm-26 1h1v1h-1v-1zm5 0h1v1h-1v-1zm13 0h1v1h-1v-1zm8 0h1v1h-1v-1zm-33 1h1v1h-1v-1zm22 0h1v1h-1v-1zm1 0h1v1h-1v-1zm1 0h1v1h-1v-1zm9 0h1v1h-1v-1zm-10 1h1v1h-1v-1zm8 2h1v1h-1v-1zm-31 1h1v1h-1v-1zm30 0h1v1h-1v-1zm-30 1h1v1h-1v-1zm6 0h1v1h-1v-1zm8 0h1v1h-1v-1zm17 0h1v1h-1v-1zm-6 1h1v1h-1v-1zm6 0h1v1h-1v-1zm-29 1h1v1h-1v-1zm16 0h1v1h-1v-1zm5 0h1v1h-1v-1zm1 0h1v1h-1v-1zm-25 1h1v1h-1v-1zm4 0h1v1h-1v-1zm4 0h1v1h-1v-1zm6 0h1v1h-1v-1zm4 0h1v1h-1v-1zm6 0h1v1h-1v-1zm-24 1h1v1h-1v-1zm8 0h1v1h-1v-1zm6 0h1v1h-1v-1zm10 0h1v1h-1v-1zm1 0h1v1h-1v-1zm-25 1h1v1h-1v-1zm5 0h1v1h-1v-1zm12 0h1v1h-1v-1zm7 0h1v1h-1v-1zm4 0h1v1h-1v-1zm-28 1h1v1h-1v-1zm7 0h1v1h-1v-1zm8 0h1v1h-1v-1zm9 0h1v1h-1v-1zm5 0h1v1h-1v-1zm-5 1h1v1h-1v-1zm4 0h1v1h-1v-1zm-4 1h1v1h-1v-1zm3 0h1v1h-1v-1zm-26 1h1v1h-1v-1zm23 0h1v1h-1v-1zm1 0h1v1h-1v-1zm-23 1h1v1h-1v-1zm21 0h1v1h-1v-1zm-20 1h1v1h-1v-1zm19 0h1v1h-1v-1zm-19 2h1v1h-1v-1zm5 0h1v1h-1v-1zm9 0h1v1h-1v-1zm5 0h1v1h-1v-1zm-18 1h1v1h-1v-1zm1 0h1v1h-1v-1zm1 0h1v1h-1v-1zm13 0h1v1h-1v-1zm1 0h1v1h-1v-1zm1 0h1v1h-1v-1zm4-16h1v1h-1v-1zm-2 1h1v1h-1v-1zm3 0h1v1h-1v-1zm1 1h1v1h-1v-1zm3 3h1v1h-1v-1zm-4 5h1v1h-1v-1z" fill="#2f3622" class="gb-dark"/><path d="M36 17h1v1h-1v-1zm-3 0h1v1h-1v-1zM8 7h1v1H8V7zm1 0h1v1H9V7zM8 8h1v1H8V8zm3 0h1v1h-1V8zm2 1h1v1h-1V9zm-4 1h1v1H9v-1zm3 0h1v1h-1v-1zm1 0h1v1h-1v-1zm25 1h1v1h-1v-1zm5 0h1v1h-1v-1zm-33 1h1v1h-1v-1zm24 0h1v1h-1v-1zm3 0h1v1h-1v-1zm6 0h1v1h-1v-1zm-32 1h1v1h-1v-1zm7 0h1v1h-1v-1zm3 0h1v1h-1v-1zm6 0h1v1h-1v-1zm3 0h1v1h-1v-1zm3 0h1v1h-1v-1zm7 0h1v1h-1v-1zm2 0h1v1h-1v-1zm-23 1h1v1h-1v-1zm10 0h1v1h-1v-1zm10 0h1v1h-1v-1zm2 0h1v1h-1v-1zm-1 1h1v1h-1v-1zm-25 1h1v1h-1v-1zm23 0h1v1h-1v-1zm-24 1h1v1h-1v-1zm32 1h1v1h-1v-1zm-32 1h1v1h-1v-1zm20 0h1v1h-1v-1zm-21 1h1v1h-1v-1zm22 0h1v1h-1v-1zm-22 2h1v1h-1v-1zm22 0h1v1h-1v-1zm-23 1h1v1h-1v-1zm2 0h1v1h-1v-1zm1 0h1v1h-1v-1zm8 0h1v1h-1v-1zm9 0h1v1h-1v-1zm1 0h1v1h-1v-1zm3 0h1v1h-1v-1zm-23 1h1v1h-1v-1zm1 0h1v1h-1v-1zm1 0h1v1h-1v-1zm1 0h1v1h-1v-1zm15 0h1v1h-1v-1zm1 0h1v1h-1v-1zm1 0h1v1h-1v-1zm1 0h1v1h-1v-1zm-21 1h1v1h-1v-1zm1 0h1v1h-1v-1zm1 0h1v1h-1v-1zm1 0h1v1h-1v-1zm3 0h1v1h-1v-1zm3 0h1v1h-1v-1zm1 0h1v1h-1v-1zm3 0h1v1h-1v-1zm5 0h1v1h-1v-1zm1 0h1v1h-1v-1zm1 0h1v1h-1v-1zm1 0h1v1h-1v-1zm-22 1h1v1h-1v-1zm2 0h1v1h-1v-1zm1 0h1v1h-1v-1zm6 0h1v1h-1v-1zm3 0h1v1h-1v-1zm8 0h1v1h-1v-1zm1 0h1v1h-1v-1zm3 0h1v1h-1v-1zm-23 2h1v1h-1v-1zm22 0h1v1h-1v-1zm11 0h1v1h-1v-1zm-32 1h1v1h-1v-1zm20 0h1v1h-1v-1zm2 0h1v1h-1v-1zm9 0h1v1h-1v-1zm-32 1h1v1h-1v-1zm22 0h1v1h-1v-1zm0 2h1v1h-1v-1zm-22 1h1v1h-1v-1zm2 0h1v1h-1v-1zm4 0h1v1h-1v-1zm8 0h1v1h-1v-1zm4 0h1v1h-1v-1zm5 0h1v1h-1v-1zm-24 1h1v1h-1v-1zm8 0h1v1h-1v-1zm6 0h1v1h-1v-1zm17 0h1v1h-1v-1zm-6 1h1v1h-1v-1zm-21 1h1v1h-1v-1zm14 0h1v1h-1v-1zm11 0h1v1h-1v-1zm-21 1h1v1h-1v-1zm6 0h1v1h-1v-1zm11 0h1v1h-1v-1zm1 0h1v1h-1v-1zm-20 1h1v1h-1v-1zm10 0h1v1h-1v-1zm9 0h1v1h-1v-1zm1 0h1v1h-1v-1zm1 0h1v1h-1v-1zm1 0h1v1h-1v-1zm-28 1h1v1h-1v-1zm25 0h1v1h-1v-1zm1 0h1v1h-1v-1zm1 0h1v1h-1v-1zm-26 1h1v1h-1v-1zm24 0h1v1h-1v-1zm-2 1h1v1h-1v-1zm-19 3h1v1h-1v-1zm5 0h1v1h-1v-1zm1 0h1v1h-1v-1zm1 0h1v1h-1v-1zm1 0h1v1h-1v-1zm1 0h1v1h-1v-1zm1 0h1v1h-1v-1zm1 0h1v1h-1v-1zm1 0h1v1h-1v-1zm5 0h1v1h-1v-1zm-14 1h1v1h-1v-1zm2 0h1v1h-1v-1zm7 0h1v1h-1v-1zm2 0h1v1h-1v-1zm-15 1h1v1h-1v-1zm4 0h1v1h-1v-1zm11 0h1v1h-1v-1zm4 0h1v1h-1v-1z" fill="#4d5d31" class="gb-normal"/><path d="M10 7h1v1h-1V7zm28 5h1v1h-1v-1zm2 0h1v1h-1v-1zm-28 1h1v1h-1v-1zm8 0h1v1h-1v-1zm8 0h1v1h-1v-1zm6 0h1v1h-1v-1zm5 0h1v1h-1v-1zm-27 1h1v1h-1v-1zm1 0h1v1h-1v-1zm5 0h1v1h-1v-1zm12 0h1v1h-1v-1zm8 0h1v1h-1v-1zm-25 1h1v1h-1v-1zm1 0h1v1h-1v-1zm1 0h1v1h-1v-1zm21 0h1v1h-1v-1zm1 0h1v1h-1v-1zm1 0h1v1h-1v-1zm-24 1h1v1h-1v-1zm2 0h1v1h-1v-1zm16 0h1v1h-1v-1zm1 0h1v1h-1v-1zm1 0h1v1h-1v-1zm1 0h1v1h-1v-1zm1 0h1v1h-1v-1zm-21 1h1v1h-1v-1zm19 0h1v1h-1v-1zm-20 3h1v1h-1v-1zm20 0h1v1h-1v-1zm11 0h1v1h-1v-1zm-1 1h1v1h-1v-1zm-1 1h1v1h-1v-1zm-1 1h1v1h-1v-1zm-1 1h1v1h-1v-1zm-1 1h1v1h-1v-1zm-1 1h1v1h-1v-1zm-1 1h1v1h-1v-1zm-24 1h1v1h-1v-1zm20 0h1v1h-1v-1zm3 0h1v1h-1v-1zm-23 2h1v1h-1v-1zm7 0h1v1h-1v-1zm1 0h1v1h-1v-1zm1 0h1v1h-1v-1zm1 0h1v1h-1v-1zm1 0h1v1h-1v-1zm9 0h1v1h-1v-1zm-12 1h1v1h-1v-1zm1 0h1v1h-1v-1zm1 0h1v1h-1v-1zm-9 4h1v1h-1v-1zm16 0h1v1h-1v-1zm7 0h1v1h-1v-1zm1 0h1v1h-1v-1zm-24 1h1v1h-1v-1zm16 0h1v1h-1v-1zm7 0h1v1h-1v-1zm1 0h1v1h-1v-1zm1 0h1v1h-1v-1zm-24 1h1v1h-1v-1zm14 0h1v1h-1v-1zm9 0h1v1h-1v-1zm-22 1h1v1h-1v-1zm12 0h1v1h-1v-1zm6 2h1v1h-1v-1zm-1 2h1v1h-1v-1zm-12 1h1v1h-1v-1zm1 0h1v1h-1v-1zm1 0h1v1h-1v-1zm1 0h1v1h-1v-1zm1 0h1v1h-1v-1zm1 0h1v1h-1v-1zm-10 1h1v1h-1v-1zm2 0h1v1h-1v-1zm1 0h1v1h-1v-1zm9 0h1v1h-1v-1zm1 0h1v1h-1v-1zm2 0h1v1h-1v-1z" fill="#7d7f4c" class="gb-light"/></g></svg>
