<?xml version="1.0" encoding="UTF-8"?>
<svg width="56px" height="56px" viewBox="0 0 56 56" version="1.1" xmlns="http://www.w3.org/2000/svg" xmlns:xlink="http://www.w3.org/1999/xlink">
    <!-- Generator: Sketch 40.3 (33839) - http://www.bohemiancoding.com/sketch -->
    <title>red_front</title>
    <desc>Created with Sketch.</desc>
    <defs></defs>
    <g id="Page-1" stroke="none" stroke-width="1" fill="none" fill-rule="evenodd">
        <g id="red_front">
            <path d="M25,1 L26,1 L26,2 L25,2 L25,1 Z M26,1 L27,1 L27,2 L26,2 L26,1 Z M27,1 L28,1 L28,2 L27,2 L27,1 Z M22,2 L23,2 L23,3 L22,3 L22,2 Z M23,2 L24,2 L24,3 L23,3 L23,2 Z M29,2 L30,2 L30,3 L29,3 L29,2 Z M30,2 L31,2 L31,3 L30,3 L30,2 Z M21,3 L22,3 L22,4 L21,4 L21,3 Z M32,3 L33,3 L33,4 L32,4 L32,3 Z M34,4 L35,4 L35,5 L34,5 L34,4 Z M20,5 L21,5 L21,6 L20,6 L20,5 Z M34,5 L35,5 L35,6 L34,6 L34,5 Z M35,6 L36,6 L36,7 L35,7 L35,6 Z M19,7 L20,7 L20,8 L19,8 L19,7 Z M35,7 L36,7 L36,8 L35,8 L35,7 Z M19,8 L20,8 L20,9 L19,9 L19,8 Z M35,8 L36,8 L36,9 L35,9 L35,8 Z M19,9 L20,9 L20,10 L19,10 L19,9 Z M34,9 L35,9 L35,10 L34,10 L34,9 Z M19,10 L20,10 L20,11 L19,11 L19,10 Z M34,10 L35,10 L35,11 L34,11 L34,10 Z M19,11 L20,11 L20,12 L19,12 L19,11 Z M20,11 L21,11 L21,12 L20,12 L20,11 Z M21,11 L22,11 L22,12 L21,12 L21,11 Z M22,11 L23,11 L23,12 L22,12 L22,11 Z M23,11 L24,11 L24,12 L23,12 L23,11 Z M34,11 L35,11 L35,12 L34,12 L34,11 Z M19,12 L20,12 L20,13 L19,13 L19,12 Z M21,12 L22,12 L22,13 L21,13 L21,12 Z M24,12 L25,12 L25,13 L24,13 L24,12 Z M25,12 L26,12 L26,13 L25,13 L25,12 Z M35,12 L36,12 L36,13 L35,13 L35,12 Z M17,13 L18,13 L18,14 L17,14 L17,13 Z M18,13 L19,13 L19,14 L18,14 L18,13 Z M23,13 L24,13 L24,14 L23,14 L23,13 Z M27,13 L28,13 L28,14 L27,14 L27,13 Z M28,13 L29,13 L29,14 L28,14 L28,13 Z M29,13 L30,13 L30,14 L29,14 L29,13 Z M35,13 L36,13 L36,14 L35,14 L35,13 Z M17,14 L18,14 L18,15 L17,15 L17,14 Z M18,14 L19,14 L19,15 L18,15 L18,14 Z M23,14 L24,14 L24,15 L23,15 L23,14 Z M30,14 L31,14 L31,15 L30,15 L30,14 Z M31,14 L32,14 L32,15 L31,15 L31,14 Z M32,14 L33,14 L33,15 L32,15 L32,14 Z M33,14 L34,14 L34,15 L33,15 L33,14 Z M34,14 L35,14 L35,15 L34,15 L34,14 Z M18,15 L19,15 L19,16 L18,16 L18,15 Z M19,15 L20,15 L20,16 L19,16 L19,15 Z M21,15 L22,15 L22,16 L21,16 L21,15 Z M32,15 L33,15 L33,16 L32,16 L32,15 Z M19,16 L20,16 L20,17 L19,17 L19,16 Z M20,16 L21,16 L21,17 L20,17 L20,16 Z M21,16 L22,16 L22,17 L21,17 L21,16 Z M32,16 L33,16 L33,17 L32,17 L32,16 Z M22,17 L23,17 L23,18 L22,18 L22,17 Z M26,17 L27,17 L27,18 L26,18 L26,17 Z M31,17 L32,17 L32,18 L31,18 L31,17 Z M21,18 L22,18 L22,19 L21,19 L21,18 Z M23,18 L24,18 L24,19 L23,19 L23,18 Z M24,18 L25,18 L25,19 L24,19 L24,18 Z M29,18 L30,18 L30,19 L29,19 L29,18 Z M30,18 L31,18 L31,19 L30,19 L30,18 Z M20,19 L21,19 L21,20 L20,20 L20,19 Z M24,19 L25,19 L25,20 L24,20 L24,19 Z M26,19 L27,19 L27,20 L26,20 L26,19 Z M27,19 L28,19 L28,20 L27,20 L27,19 Z M28,19 L29,19 L29,20 L28,20 L28,19 Z M31,19 L32,19 L32,20 L31,20 L31,19 Z M19,20 L20,20 L20,21 L19,21 L19,20 Z M23,20 L24,20 L24,21 L23,21 L23,20 Z M27,20 L28,20 L28,21 L27,21 L27,20 Z M31,20 L32,20 L32,21 L31,21 L31,20 Z M33,20 L34,20 L34,21 L33,21 L33,20 Z M19,21 L20,21 L20,22 L19,22 L19,21 Z M20,21 L21,21 L21,22 L20,22 L20,21 Z M23,21 L24,21 L24,22 L23,22 L23,21 Z M28,21 L29,21 L29,22 L28,22 L28,21 Z M30,21 L31,21 L31,22 L30,22 L30,21 Z M31,21 L32,21 L32,22 L31,22 L31,21 Z M35,21 L36,21 L36,22 L35,22 L35,21 Z M18,22 L19,22 L19,23 L18,23 L18,22 Z M21,22 L22,22 L22,23 L21,23 L21,22 Z M24,22 L25,22 L25,23 L24,23 L24,22 Z M27,22 L28,22 L28,23 L27,23 L27,22 Z M28,22 L29,22 L29,23 L28,23 L28,22 Z M29,22 L30,22 L30,23 L29,23 L29,22 Z M32,22 L33,22 L33,23 L32,23 L32,22 Z M36,22 L37,22 L37,23 L36,23 L36,22 Z M19,23 L20,23 L20,24 L19,24 L19,23 Z M22,23 L23,23 L23,24 L22,24 L22,23 Z M23,23 L24,23 L24,24 L23,24 L23,23 Z M24,23 L25,23 L25,24 L24,24 L24,23 Z M25,23 L26,23 L26,24 L25,24 L25,23 Z M26,23 L27,23 L27,24 L26,24 L26,23 Z M27,23 L28,23 L28,24 L27,24 L27,23 Z M28,23 L29,23 L29,24 L28,24 L28,23 Z M32,23 L33,23 L33,24 L32,24 L32,23 Z M37,23 L38,23 L38,24 L37,24 L37,23 Z M17,24 L18,24 L18,25 L17,25 L17,24 Z M19,24 L20,24 L20,25 L19,25 L19,24 Z M24,24 L25,24 L25,25 L24,25 L24,24 Z M25,24 L26,24 L26,25 L25,25 L25,24 Z M26,24 L27,24 L27,25 L26,25 L26,24 Z M27,24 L28,24 L28,25 L27,25 L27,24 Z M28,24 L29,24 L29,25 L28,25 L28,24 Z M33,24 L34,24 L34,25 L33,25 L33,24 Z M37,24 L38,24 L38,25 L37,25 L37,24 Z M19,25 L20,25 L20,26 L19,26 L19,25 Z M24,25 L25,25 L25,26 L24,26 L24,25 Z M25,25 L26,25 L26,26 L25,26 L25,25 Z M26,25 L27,25 L27,26 L26,26 L26,25 Z M27,25 L28,25 L28,26 L27,26 L27,25 Z M28,25 L29,25 L29,26 L28,26 L28,25 Z M29,25 L30,25 L30,26 L29,26 L29,25 Z M33,25 L34,25 L34,26 L33,26 L33,25 Z M36,25 L37,25 L37,26 L36,26 L36,25 Z M16,26 L17,26 L17,27 L16,27 L16,26 Z M24,26 L25,26 L25,27 L24,27 L24,26 Z M25,26 L26,26 L26,27 L25,27 L25,26 Z M26,26 L27,26 L27,27 L26,27 L26,26 Z M27,26 L28,26 L28,27 L27,27 L27,26 Z M28,26 L29,26 L29,27 L28,27 L28,26 Z M29,26 L30,26 L30,27 L29,27 L29,26 Z M33,26 L34,26 L34,27 L33,27 L33,26 Z M35,26 L36,26 L36,27 L35,27 L35,26 Z M39,26 L40,26 L40,27 L39,27 L39,26 Z M20,27 L21,27 L21,28 L20,28 L20,27 Z M25,27 L26,27 L26,28 L25,28 L25,27 Z M26,27 L27,27 L27,28 L26,28 L26,27 Z M27,27 L28,27 L28,28 L27,28 L27,27 Z M28,27 L29,27 L29,28 L28,28 L28,27 Z M29,27 L30,27 L30,28 L29,28 L29,27 Z M34,27 L35,27 L35,28 L34,28 L34,27 Z M15,28 L16,28 L16,29 L15,29 L15,28 Z M20,28 L21,28 L21,29 L20,29 L20,28 Z M25,28 L26,28 L26,29 L25,29 L25,28 Z M26,28 L27,28 L27,29 L26,29 L26,28 Z M27,28 L28,28 L28,29 L27,29 L27,28 Z M28,28 L29,28 L29,29 L28,29 L28,28 Z M29,28 L30,28 L30,29 L29,29 L29,28 Z M34,28 L35,28 L35,29 L34,29 L34,28 Z M35,28 L36,28 L36,29 L35,29 L35,28 Z M40,28 L41,28 L41,29 L40,29 L40,28 Z M15,29 L16,29 L16,30 L15,30 L15,29 Z M16,29 L17,29 L17,30 L16,30 L16,29 Z M17,29 L18,29 L18,30 L17,30 L17,29 Z M20,29 L21,29 L21,30 L20,30 L20,29 Z M25,29 L26,29 L26,30 L25,30 L25,29 Z M26,29 L27,29 L27,30 L26,30 L26,29 Z M27,29 L28,29 L28,30 L27,30 L27,29 Z M28,29 L29,29 L29,30 L28,30 L28,29 Z M29,29 L30,29 L30,30 L29,30 L29,29 Z M30,29 L31,29 L31,30 L30,30 L30,29 Z M34,29 L35,29 L35,30 L34,30 L34,29 Z M39,29 L40,29 L40,30 L39,30 L39,29 Z M16,30 L17,30 L17,31 L16,31 L16,30 Z M18,30 L19,30 L19,31 L18,31 L18,30 Z M19,30 L20,30 L20,31 L19,31 L19,30 Z M20,30 L21,30 L21,31 L20,31 L20,30 Z M25,30 L26,30 L26,31 L25,31 L25,30 Z M26,30 L27,30 L27,31 L26,31 L26,30 Z M27,30 L28,30 L28,31 L27,31 L27,30 Z M28,30 L29,30 L29,31 L28,31 L28,30 Z M29,30 L30,30 L30,31 L29,31 L29,30 Z M30,30 L31,30 L31,31 L30,31 L30,30 Z M34,30 L35,30 L35,31 L34,31 L34,30 Z M38,30 L39,30 L39,31 L38,31 L38,30 Z M16,31 L17,31 L17,32 L16,32 L16,31 Z M20,31 L21,31 L21,32 L20,32 L20,31 Z M25,31 L26,31 L26,32 L25,32 L25,31 Z M26,31 L27,31 L27,32 L26,32 L26,31 Z M27,31 L28,31 L28,32 L27,32 L27,31 Z M28,31 L29,31 L29,32 L28,32 L28,31 Z M29,31 L30,31 L30,32 L29,32 L29,31 Z M30,31 L31,31 L31,32 L30,32 L30,31 Z M35,31 L36,31 L36,32 L35,32 L35,31 Z M37,31 L38,31 L38,32 L37,32 L37,31 Z M16,32 L17,32 L17,33 L16,33 L16,32 Z M19,32 L20,32 L20,33 L19,33 L19,32 Z M20,32 L21,32 L21,33 L20,33 L20,32 Z M25,32 L26,32 L26,33 L25,33 L25,32 Z M26,32 L27,32 L27,33 L26,33 L26,32 Z M27,32 L28,32 L28,33 L27,33 L27,32 Z M30,32 L31,32 L31,33 L30,33 L30,32 Z M33,32 L34,32 L34,33 L33,33 L33,32 Z M35,32 L36,32 L36,33 L35,33 L35,32 Z M36,32 L37,32 L37,33 L36,33 L36,32 Z M15,33 L16,33 L16,34 L15,34 L15,33 Z M19,33 L20,33 L20,34 L19,34 L19,33 Z M20,33 L21,33 L21,34 L20,34 L20,33 Z M28,33 L29,33 L29,34 L28,34 L28,33 Z M29,33 L30,33 L30,34 L29,34 L29,33 Z M30,33 L31,33 L31,34 L30,34 L30,33 Z M31,33 L32,33 L32,34 L31,34 L31,33 Z M32,33 L33,33 L33,34 L32,34 L32,33 Z M34,33 L35,33 L35,34 L34,34 L34,33 Z M35,33 L36,33 L36,34 L35,34 L35,33 Z M15,34 L16,34 L16,35 L15,35 L15,34 Z M19,34 L20,34 L20,35 L19,35 L19,34 Z M21,34 L22,34 L22,35 L21,35 L21,34 Z M22,34 L23,34 L23,35 L22,35 L22,34 Z M23,34 L24,34 L24,35 L23,35 L23,34 Z M24,34 L25,34 L25,35 L24,35 L24,34 Z M28,34 L29,34 L29,35 L28,35 L28,34 Z M32,34 L33,34 L33,35 L32,35 L32,34 Z M35,34 L36,34 L36,35 L35,35 L35,34 Z M15,35 L16,35 L16,36 L15,36 L15,35 Z M16,35 L17,35 L17,36 L16,36 L16,35 Z M17,35 L18,35 L18,36 L17,36 L17,35 Z M21,35 L22,35 L22,36 L21,36 L21,35 Z M28,35 L29,35 L29,36 L28,36 L28,35 Z M32,35 L33,35 L33,36 L32,36 L32,35 Z M35,35 L36,35 L36,36 L35,36 L35,35 Z M15,36 L16,36 L16,37 L15,37 L15,36 Z M18,36 L19,36 L19,37 L18,37 L18,36 Z M19,36 L20,36 L20,37 L19,37 L19,36 Z M21,36 L22,36 L22,37 L21,37 L21,36 Z M32,36 L33,36 L33,37 L32,37 L32,36 Z M33,36 L34,36 L34,37 L33,37 L33,36 Z M34,36 L35,36 L35,37 L34,37 L34,36 Z M15,37 L16,37 L16,38 L15,38 L15,37 Z M16,37 L17,37 L17,38 L16,38 L16,37 Z M17,37 L18,37 L18,38 L17,38 L17,37 Z M20,37 L21,37 L21,38 L20,38 L20,37 Z M21,37 L22,37 L22,38 L21,38 L21,37 Z M26,37 L27,37 L27,38 L26,38 L26,37 Z M27,37 L28,37 L28,38 L27,38 L27,37 Z M32,37 L33,37 L33,38 L32,38 L32,37 Z M33,37 L34,37 L34,38 L33,38 L33,37 Z M15,38 L16,38 L16,39 L15,39 L15,38 Z M20,38 L21,38 L21,39 L20,39 L20,38 Z M21,38 L22,38 L22,39 L21,39 L21,38 Z M27,38 L28,38 L28,39 L27,39 L27,38 Z M19,39 L20,39 L20,40 L19,40 L19,39 Z M21,39 L22,39 L22,40 L21,40 L21,39 Z M26,39 L27,39 L27,40 L26,40 L26,39 Z M28,39 L29,39 L29,40 L28,40 L28,39 Z M33,39 L34,39 L34,40 L33,40 L33,39 Z M17,40 L18,40 L18,41 L17,41 L17,40 Z M18,40 L19,40 L19,41 L18,41 L18,40 Z M21,40 L22,40 L22,41 L21,41 L21,40 Z M26,40 L27,40 L27,41 L26,41 L26,40 Z M28,40 L29,40 L29,41 L28,41 L28,40 Z M33,40 L34,40 L34,41 L33,41 L33,40 Z M21,41 L22,41 L22,42 L21,42 L21,41 Z M26,41 L27,41 L27,42 L26,42 L26,41 Z M28,41 L29,41 L29,42 L28,42 L28,41 Z M33,41 L34,41 L34,42 L33,42 L33,41 Z M26,42 L27,42 L27,43 L26,43 L26,42 Z M28,42 L29,42 L29,43 L28,43 L28,42 Z M33,42 L34,42 L34,43 L33,43 L33,42 Z M20,43 L21,43 L21,44 L20,44 L20,43 Z M25,43 L26,43 L26,44 L25,44 L25,43 Z M20,44 L21,44 L21,45 L20,45 L20,44 Z M25,44 L26,44 L26,45 L25,45 L25,44 Z M29,44 L30,44 L30,45 L29,45 L29,44 Z M34,44 L35,44 L35,45 L34,45 L34,44 Z M20,45 L21,45 L21,46 L20,46 L20,45 Z M25,45 L26,45 L26,46 L25,46 L25,45 Z M29,45 L30,45 L30,46 L29,46 L29,45 Z M34,45 L35,45 L35,46 L34,46 L34,45 Z M20,46 L21,46 L21,47 L20,47 L20,46 Z M25,46 L26,46 L26,47 L25,47 L25,46 Z M29,46 L30,46 L30,47 L29,47 L29,46 Z M34,46 L35,46 L35,47 L34,47 L34,46 Z M21,47 L22,47 L22,48 L21,48 L21,47 Z M24,47 L25,47 L25,48 L24,48 L24,47 Z M29,47 L30,47 L30,48 L29,48 L29,47 Z M34,47 L35,47 L35,48 L34,48 L34,47 Z M21,48 L22,48 L22,49 L21,49 L21,48 Z M22,48 L23,48 L23,49 L22,49 L22,48 Z M23,48 L24,48 L24,49 L23,49 L23,48 Z M24,48 L25,48 L25,49 L24,49 L24,48 Z M30,48 L31,48 L31,49 L30,49 L30,48 Z M33,48 L34,48 L34,49 L33,49 L33,48 Z M20,49 L21,49 L21,50 L20,50 L20,49 Z M21,49 L22,49 L22,50 L21,50 L21,49 Z M24,49 L25,49 L25,50 L24,50 L24,49 Z M30,49 L31,49 L31,50 L30,50 L30,49 Z M31,49 L32,49 L32,50 L31,50 L31,49 Z M32,49 L33,49 L33,50 L32,50 L32,49 Z M33,49 L34,49 L34,50 L33,50 L33,49 Z M20,50 L21,50 L21,51 L20,51 L20,50 Z M23,50 L24,50 L24,51 L23,51 L23,50 Z M25,50 L26,50 L26,51 L25,51 L25,50 Z M29,50 L30,50 L30,51 L29,51 L29,50 Z M34,50 L35,50 L35,51 L34,51 L34,50 Z M19,51 L20,51 L20,52 L19,52 L19,51 Z M21,51 L22,51 L22,52 L21,52 L21,51 Z M22,51 L23,51 L23,52 L22,52 L22,51 Z M25,51 L26,51 L26,52 L25,52 L25,51 Z M29,51 L30,51 L30,52 L29,52 L29,51 Z M31,51 L32,51 L32,52 L31,52 L31,51 Z M33,51 L34,51 L34,52 L33,52 L33,51 Z M34,51 L35,51 L35,52 L34,52 L34,51 Z M35,51 L36,51 L36,52 L35,52 L35,51 Z M19,52 L20,52 L20,53 L19,53 L19,52 Z M24,52 L25,52 L25,53 L24,53 L24,52 Z M25,52 L26,52 L26,53 L25,53 L25,52 Z M29,52 L30,52 L30,53 L29,53 L29,52 Z M32,52 L33,52 L33,53 L32,53 L32,52 Z M36,52 L37,52 L37,53 L36,53 L36,52 Z M19,53 L20,53 L20,54 L19,54 L19,53 Z M24,53 L25,53 L25,54 L24,54 L24,53 Z M30,53 L31,53 L31,54 L30,54 L30,53 Z M31,53 L32,53 L32,54 L31,54 L31,53 Z M36,53 L37,53 L37,54 L36,54 L36,53 Z M20,54 L21,54 L21,55 L20,55 L20,54 Z M21,54 L22,54 L22,55 L21,55 L21,54 Z M22,54 L23,54 L23,55 L22,55 L22,54 Z M23,54 L24,54 L24,55 L23,55 L23,54 Z M32,54 L33,54 L33,55 L32,55 L32,54 Z M33,54 L34,54 L34,55 L33,55 L33,54 Z M34,54 L35,54 L35,55 L34,55 L34,54 Z M35,54 L36,54 L36,55 L35,55 L35,54 Z" id="Combined-Shape" fill="#303C17"></path>
            <path d="M24,1 L25,1 L25,2 L24,2 L24,1 Z M28,1 L29,1 L29,2 L28,2 L28,1 Z M25,2 L26,2 L26,3 L25,3 L25,2 Z M26,2 L27,2 L27,3 L26,3 L26,2 Z M27,2 L28,2 L28,3 L27,3 L27,2 Z M28,2 L29,2 L29,3 L28,3 L28,2 Z M31,2 L32,2 L32,3 L31,3 L31,2 Z M24,3 L25,3 L25,4 L24,4 L24,3 Z M31,3 L32,3 L32,4 L31,4 L31,3 Z M33,3 L34,3 L34,4 L33,4 L33,3 Z M20,4 L21,4 L21,5 L20,5 L20,4 Z M23,4 L24,4 L24,5 L23,5 L23,4 Z M33,4 L34,4 L34,5 L33,5 L33,4 Z M22,5 L23,5 L23,6 L22,6 L22,5 Z M23,5 L24,5 L24,6 L23,6 L23,5 Z M19,6 L20,6 L20,7 L19,7 L19,6 Z M22,6 L23,6 L23,7 L22,7 L22,6 Z M34,6 L35,6 L35,7 L34,7 L34,6 Z M22,7 L23,7 L23,8 L22,8 L22,7 Z M21,8 L22,8 L22,9 L21,9 L21,8 Z M22,8 L23,8 L23,9 L22,9 L22,8 Z M25,8 L26,8 L26,9 L25,9 L25,8 Z M26,8 L27,8 L27,9 L26,9 L26,8 Z M27,8 L28,8 L28,9 L27,9 L27,8 Z M28,8 L29,8 L29,9 L28,9 L28,8 Z M20,9 L21,9 L21,10 L20,10 L20,9 Z M21,9 L22,9 L22,10 L21,10 L21,9 Z M22,9 L23,9 L23,10 L22,10 L22,9 Z M23,9 L24,9 L24,10 L23,10 L23,9 Z M24,9 L25,9 L25,10 L24,10 L24,9 Z M29,9 L30,9 L30,10 L29,10 L29,9 Z M30,9 L31,9 L31,10 L30,10 L30,9 Z M31,9 L32,9 L32,10 L31,10 L31,9 Z M20,10 L21,10 L21,11 L20,11 L20,10 Z M21,10 L22,10 L22,11 L21,11 L21,10 Z M22,10 L23,10 L23,11 L22,11 L22,10 Z M32,10 L33,10 L33,11 L32,11 L32,10 Z M33,10 L34,10 L34,11 L33,11 L33,10 Z M18,12 L19,12 L19,13 L18,13 L18,12 Z M22,12 L23,12 L23,13 L22,13 L22,12 Z M23,12 L24,12 L24,13 L23,13 L23,12 Z M25,13 L26,13 L26,14 L25,14 L25,13 Z M26,13 L27,13 L27,14 L26,14 L26,13 Z M16,14 L17,14 L17,15 L16,15 L16,14 Z M20,14 L21,14 L21,15 L20,15 L20,14 Z M27,14 L28,14 L28,15 L27,15 L27,14 Z M28,14 L29,14 L29,15 L28,15 L28,14 Z M29,14 L30,14 L30,15 L29,15 L29,14 Z M28,15 L29,15 L29,16 L28,16 L28,15 Z M27,17 L28,17 L28,18 L27,18 L27,17 Z M30,17 L31,17 L31,18 L30,18 L30,17 Z M28,18 L29,18 L29,19 L28,19 L28,18 Z M25,19 L26,19 L26,20 L25,20 L25,19 Z M32,19 L33,19 L33,20 L32,20 L32,19 Z M34,20 L35,20 L35,21 L34,21 L34,20 Z M19,22 L20,22 L20,23 L19,23 L19,22 Z M20,22 L21,22 L21,23 L20,23 L20,22 Z M30,22 L31,22 L31,23 L30,23 L30,22 Z M31,22 L32,22 L32,23 L31,23 L31,22 Z M17,23 L18,23 L18,24 L17,24 L17,23 Z M20,23 L21,23 L21,24 L20,24 L20,23 Z M21,23 L22,23 L22,24 L21,24 L21,23 Z M29,23 L30,23 L30,24 L29,24 L29,23 Z M30,23 L31,23 L31,24 L30,24 L30,23 Z M31,23 L32,23 L32,24 L31,24 L31,23 Z M20,24 L21,24 L21,25 L20,25 L20,24 Z M21,24 L22,24 L22,25 L21,25 L21,24 Z M22,24 L23,24 L23,25 L22,25 L22,24 Z M23,24 L24,24 L24,25 L23,25 L23,24 Z M29,24 L30,24 L30,25 L29,25 L29,24 Z M30,24 L31,24 L31,25 L30,25 L30,24 Z M31,24 L32,24 L32,25 L31,25 L31,24 Z M32,24 L33,24 L33,25 L32,25 L32,24 Z M16,25 L17,25 L17,26 L16,26 L16,25 Z M20,25 L21,25 L21,26 L20,26 L20,25 Z M21,25 L22,25 L22,26 L21,26 L21,25 Z M22,25 L23,25 L23,26 L22,26 L22,25 Z M23,25 L24,25 L24,26 L23,26 L23,25 Z M30,25 L31,25 L31,26 L30,26 L30,25 Z M31,25 L32,25 L32,26 L31,26 L31,25 Z M32,25 L33,25 L33,26 L32,26 L32,25 Z M38,25 L39,25 L39,26 L38,26 L38,25 Z M39,25 L40,25 L40,26 L39,26 L39,25 Z M20,26 L21,26 L21,27 L20,27 L20,26 Z M21,26 L22,26 L22,27 L21,27 L21,26 Z M22,26 L23,26 L23,27 L22,27 L22,26 Z M23,26 L24,26 L24,27 L23,27 L23,26 Z M30,26 L31,26 L31,27 L30,27 L30,26 Z M31,26 L32,26 L32,27 L31,27 L31,26 Z M32,26 L33,26 L33,27 L32,27 L32,26 Z M34,26 L35,26 L35,27 L34,27 L34,26 Z M15,27 L16,27 L16,28 L15,28 L15,27 Z M21,27 L22,27 L22,28 L21,28 L21,27 Z M22,27 L23,27 L23,28 L22,28 L22,27 Z M23,27 L24,27 L24,28 L23,28 L23,27 Z M24,27 L25,27 L25,28 L24,28 L24,27 Z M30,27 L31,27 L31,28 L30,28 L30,27 Z M31,27 L32,27 L32,28 L31,28 L31,27 Z M32,27 L33,27 L33,28 L32,28 L32,27 Z M33,27 L34,27 L34,28 L33,28 L33,27 Z M35,27 L36,27 L36,28 L35,28 L35,27 Z M40,27 L41,27 L41,28 L40,28 L40,27 Z M21,28 L22,28 L22,29 L21,29 L21,28 Z M22,28 L23,28 L23,29 L22,29 L22,28 Z M23,28 L24,28 L24,29 L23,29 L23,28 Z M24,28 L25,28 L25,29 L24,29 L24,28 Z M30,28 L31,28 L31,29 L30,29 L30,28 Z M31,28 L32,28 L32,29 L31,29 L31,28 Z M32,28 L33,28 L33,29 L32,29 L32,28 Z M33,28 L34,28 L34,29 L33,29 L33,28 Z M21,29 L22,29 L22,30 L21,30 L21,29 Z M22,29 L23,29 L23,30 L22,30 L22,29 Z M23,29 L24,29 L24,30 L23,30 L23,29 Z M24,29 L25,29 L25,30 L24,30 L24,29 Z M31,29 L32,29 L32,30 L31,30 L31,29 Z M32,29 L33,29 L33,30 L32,30 L32,29 Z M33,29 L34,29 L34,30 L33,30 L33,29 Z M21,30 L22,30 L22,31 L21,31 L21,30 Z M22,30 L23,30 L23,31 L22,31 L22,30 Z M23,30 L24,30 L24,31 L23,31 L23,30 Z M24,30 L25,30 L25,31 L24,31 L24,30 Z M31,30 L32,30 L32,31 L31,31 L31,30 Z M32,30 L33,30 L33,31 L32,31 L32,30 Z M33,30 L34,30 L34,31 L33,31 L33,30 Z M21,31 L22,31 L22,32 L21,32 L21,31 Z M22,31 L23,31 L23,32 L22,32 L22,31 Z M23,31 L24,31 L24,32 L23,32 L23,31 Z M24,31 L25,31 L25,32 L24,32 L24,31 Z M31,31 L32,31 L32,32 L31,32 L31,31 Z M32,31 L33,31 L33,32 L32,32 L32,31 Z M34,31 L35,31 L35,32 L34,32 L34,31 Z M36,31 L37,31 L37,32 L36,32 L36,31 Z M21,32 L22,32 L22,33 L21,33 L21,32 Z M22,32 L23,32 L23,33 L22,33 L22,32 Z M23,32 L24,32 L24,33 L23,33 L23,32 Z M24,32 L25,32 L25,33 L24,33 L24,32 Z M28,32 L29,32 L29,33 L28,33 L28,32 Z M29,32 L30,32 L30,33 L29,33 L29,32 Z M34,32 L35,32 L35,33 L34,33 L34,32 Z M25,33 L26,33 L26,34 L25,34 L25,33 Z M33,33 L34,33 L34,34 L33,34 L33,33 Z M20,34 L21,34 L21,35 L20,35 L20,34 Z M25,34 L26,34 L26,35 L25,35 L25,34 Z M26,34 L27,34 L27,35 L26,35 L26,34 Z M27,34 L28,34 L28,35 L27,35 L27,34 Z M29,34 L30,34 L30,35 L29,35 L29,34 Z M30,34 L31,34 L31,35 L30,35 L30,34 Z M31,34 L32,34 L32,35 L31,35 L31,34 Z M33,34 L34,34 L34,35 L33,35 L33,34 Z M34,34 L35,34 L35,35 L34,35 L34,34 Z M18,35 L19,35 L19,36 L18,36 L18,35 Z M29,35 L30,35 L30,36 L29,36 L29,35 Z M30,35 L31,35 L31,36 L30,36 L30,35 Z M31,35 L32,35 L32,36 L31,36 L31,35 Z M33,35 L34,35 L34,36 L33,36 L33,35 Z M16,36 L17,36 L17,37 L16,37 L16,36 Z M17,36 L18,36 L18,37 L17,37 L17,36 Z M22,36 L23,36 L23,37 L22,37 L22,36 Z M23,36 L24,36 L24,37 L23,37 L23,36 Z M24,36 L25,36 L25,37 L24,37 L24,36 Z M25,36 L26,36 L26,37 L25,37 L25,36 Z M26,36 L27,36 L27,37 L26,37 L26,36 Z M27,36 L28,36 L28,37 L27,37 L27,36 Z M28,36 L29,36 L29,37 L28,37 L28,36 Z M29,36 L30,36 L30,37 L29,37 L29,36 Z M30,36 L31,36 L31,37 L30,37 L30,36 Z M31,36 L32,36 L32,37 L31,37 L31,36 Z M18,37 L19,37 L19,38 L18,38 L18,37 Z M19,37 L20,37 L20,38 L19,38 L19,37 Z M22,37 L23,37 L23,38 L22,38 L22,37 Z M23,37 L24,37 L24,38 L23,38 L23,37 Z M24,37 L25,37 L25,38 L24,38 L24,37 Z M25,37 L26,37 L26,38 L25,38 L25,37 Z M28,37 L29,37 L29,38 L28,38 L28,37 Z M29,37 L30,37 L30,38 L29,38 L29,37 Z M30,37 L31,37 L31,38 L30,38 L30,37 Z M31,37 L32,37 L32,38 L31,38 L31,37 Z M16,38 L17,38 L17,39 L16,39 L16,38 Z M17,38 L18,38 L18,39 L17,39 L17,38 Z M18,38 L19,38 L19,39 L18,39 L18,38 Z M22,38 L23,38 L23,39 L22,39 L22,38 Z M23,38 L24,38 L24,39 L23,39 L23,38 Z M24,38 L25,38 L25,39 L24,39 L24,38 Z M25,38 L26,38 L26,39 L25,39 L25,38 Z M26,38 L27,38 L27,39 L26,39 L26,38 Z M28,38 L29,38 L29,39 L28,39 L28,38 Z M29,38 L30,38 L30,39 L29,39 L29,38 Z M30,38 L31,38 L31,39 L30,39 L30,38 Z M31,38 L32,38 L32,39 L31,39 L31,38 Z M32,38 L33,38 L33,39 L32,39 L32,38 Z M33,38 L34,38 L34,39 L33,39 L33,38 Z M16,39 L17,39 L17,40 L16,40 L16,39 Z M17,39 L18,39 L18,40 L17,40 L17,39 Z M22,39 L23,39 L23,40 L22,40 L22,39 Z M23,39 L24,39 L24,40 L23,40 L23,39 Z M24,39 L25,39 L25,40 L24,40 L24,39 Z M25,39 L26,39 L26,40 L25,40 L25,39 Z M29,39 L30,39 L30,40 L29,40 L29,39 Z M30,39 L31,39 L31,40 L30,40 L30,39 Z M31,39 L32,39 L32,40 L31,40 L31,39 Z M32,39 L33,39 L33,40 L32,40 L32,39 Z M22,40 L23,40 L23,41 L22,41 L22,40 Z M23,40 L24,40 L24,41 L23,41 L23,40 Z M24,40 L25,40 L25,41 L24,41 L24,40 Z M25,40 L26,40 L26,41 L25,41 L25,40 Z M29,40 L30,40 L30,41 L29,41 L29,40 Z M30,40 L31,40 L31,41 L30,41 L30,40 Z M31,40 L32,40 L32,41 L31,41 L31,40 Z M32,40 L33,40 L33,41 L32,41 L32,40 Z M25,41 L26,41 L26,42 L25,42 L25,41 Z M29,41 L30,41 L30,42 L29,42 L29,41 Z M31,41 L32,41 L32,42 L31,42 L31,41 Z M20,42 L21,42 L21,43 L20,43 L20,42 Z M21,42 L22,42 L22,43 L21,43 L21,42 Z M22,42 L23,42 L23,43 L22,43 L22,42 Z M24,42 L25,42 L25,43 L24,43 L24,42 Z M29,42 L30,42 L30,43 L29,43 L29,42 Z M30,42 L31,42 L31,43 L30,43 L30,42 Z M32,42 L33,42 L33,43 L32,43 L32,42 Z M21,43 L22,43 L22,44 L21,44 L21,43 Z M23,43 L24,43 L24,44 L23,44 L23,43 Z M28,43 L29,43 L29,44 L28,44 L28,43 Z M29,43 L30,43 L30,44 L29,44 L29,43 Z M30,43 L31,43 L31,44 L30,44 L30,43 Z M31,43 L32,43 L32,44 L31,44 L31,43 Z M33,43 L34,43 L34,44 L33,44 L33,43 Z M21,44 L22,44 L22,45 L21,45 L21,44 Z M22,44 L23,44 L23,45 L22,45 L22,44 Z M24,44 L25,44 L25,45 L24,45 L24,44 Z M30,44 L31,44 L31,45 L30,45 L30,44 Z M32,44 L33,44 L33,45 L32,45 L32,44 Z M21,45 L22,45 L22,46 L21,46 L21,45 Z M23,45 L24,45 L24,46 L23,46 L23,45 Z M30,45 L31,45 L31,46 L30,46 L30,45 Z M31,45 L32,45 L32,46 L31,46 L31,45 Z M32,45 L33,45 L33,46 L32,46 L32,45 Z M33,45 L34,45 L34,46 L33,46 L33,45 Z M21,46 L22,46 L22,47 L21,47 L21,46 Z M22,46 L23,46 L23,47 L22,47 L22,46 Z M23,46 L24,46 L24,47 L23,47 L23,46 Z M24,46 L25,46 L25,47 L24,47 L24,46 Z M30,46 L31,46 L31,47 L30,47 L30,46 Z M31,46 L32,46 L32,47 L31,47 L31,46 Z M32,46 L33,46 L33,47 L32,47 L32,46 Z M33,46 L34,46 L34,47 L33,47 L33,46 Z M22,47 L23,47 L23,48 L22,48 L22,47 Z M23,47 L24,47 L24,48 L23,48 L23,47 Z M30,47 L31,47 L31,48 L30,48 L30,47 Z M31,47 L32,47 L32,48 L31,48 L31,47 Z M32,47 L33,47 L33,48 L32,48 L32,47 Z M33,47 L34,47 L34,48 L33,48 L33,47 Z M31,48 L32,48 L32,49 L31,49 L31,48 Z M32,48 L33,48 L33,49 L32,49 L32,48 Z M21,50 L22,50 L22,51 L21,51 L21,50 Z M22,50 L23,50 L23,51 L22,51 L22,50 Z M24,50 L25,50 L25,51 L24,51 L24,50 Z M30,50 L31,50 L31,51 L30,51 L30,50 Z M31,50 L32,50 L32,51 L31,51 L31,50 Z M20,51 L21,51 L21,52 L20,52 L20,51 Z M23,51 L24,51 L24,52 L23,52 L23,51 Z M24,51 L25,51 L25,52 L24,52 L24,51 Z M30,51 L31,51 L31,52 L30,52 L30,51 Z M32,51 L33,51 L33,52 L32,52 L32,51 Z M20,52 L21,52 L21,53 L20,53 L20,52 Z M23,52 L24,52 L24,53 L23,53 L23,52 Z M30,52 L31,52 L31,53 L30,53 L30,52 Z M31,52 L32,52 L32,53 L31,53 L31,52 Z M33,52 L34,52 L34,53 L33,53 L33,52 Z M32,53 L33,53 L33,54 L32,54 L32,53 Z M22,35 L23,35 L23,36 L22,36 L22,35 Z M23,35 L24,35 L24,36 L23,36 L23,35 Z M24,35 L25,35 L25,36 L24,36 L24,35 Z M25,35 L26,35 L26,36 L25,36 L25,35 Z M26,35 L27,35 L27,36 L26,36 L26,35 Z M27,35 L28,35 L28,36 L27,36 L27,35 Z M23,41 L24,41 L24,42 L23,42 L23,41 Z" id="Combined-Shape" fill="#585A26"></path>
            <path d="M24,2 L25,2 L25,3 L24,3 L24,2 Z M22,3 L23,3 L23,4 L22,4 L22,3 Z M23,3 L24,3 L24,4 L23,4 L23,3 Z M30,3 L31,3 L31,4 L30,4 L30,3 Z M21,4 L22,4 L22,5 L21,5 L21,4 Z M22,4 L23,4 L23,5 L22,5 L22,4 Z M30,4 L31,4 L31,5 L30,5 L30,4 Z M21,5 L22,5 L22,6 L21,6 L21,5 Z M30,5 L31,5 L31,6 L30,6 L30,5 Z M20,6 L21,6 L21,7 L20,7 L20,6 Z M21,6 L22,6 L22,7 L21,7 L21,6 Z M30,6 L31,6 L31,7 L30,7 L30,6 Z M20,7 L21,7 L21,8 L20,8 L20,7 Z M21,7 L22,7 L22,8 L21,8 L21,7 Z M29,7 L30,7 L30,8 L29,8 L29,7 Z M20,8 L21,8 L21,9 L20,9 L20,8 Z M29,8 L30,8 L30,9 L29,9 L29,8 Z M23,10 L24,10 L24,11 L23,11 L23,10 Z M24,11 L25,11 L25,12 L24,12 L24,11 Z M25,11 L26,11 L26,12 L25,12 L25,11 Z M26,12 L27,12 L27,13 L26,13 L26,12 Z M27,12 L28,12 L28,13 L27,13 L27,12 Z M28,12 L29,12 L29,13 L28,13 L28,12 Z M29,12 L30,12 L30,13 L29,13 L29,12 Z M20,13 L21,13 L21,14 L20,14 L20,13 Z M30,13 L31,13 L31,14 L30,14 L30,13 Z M31,13 L32,13 L32,14 L31,14 L31,13 Z M32,13 L33,13 L33,14 L32,14 L32,13 Z M33,13 L34,13 L34,14 L33,14 L33,13 Z M34,13 L35,13 L35,14 L34,14 L34,13 Z M25,14 L26,14 L26,15 L25,15 L25,14 Z M26,14 L27,14 L27,15 L26,15 L26,14 Z M24,15 L25,15 L25,16 L24,16 L24,15 Z M25,15 L26,15 L26,16 L25,16 L25,15 Z M27,15 L28,15 L28,16 L27,16 L27,15 Z M29,15 L30,15 L30,16 L29,16 L29,15 Z M30,15 L31,15 L31,16 L30,16 L30,15 Z M31,15 L32,15 L32,16 L31,16 L31,15 Z M24,16 L25,16 L25,17 L24,17 L24,16 Z M25,16 L26,16 L26,17 L25,17 L25,16 Z M26,16 L27,16 L27,17 L26,17 L26,16 Z M27,16 L28,16 L28,17 L27,17 L27,16 Z M28,16 L29,16 L29,17 L28,17 L28,16 Z M29,16 L30,16 L30,17 L29,17 L29,16 Z M30,16 L31,16 L31,17 L30,17 L30,16 Z M31,16 L32,16 L32,17 L31,17 L31,16 Z M25,17 L26,17 L26,18 L25,18 L25,17 Z M28,17 L29,17 L29,18 L28,18 L28,17 Z M29,17 L30,17 L30,18 L29,18 L29,17 Z M25,18 L26,18 L26,19 L25,19 L25,18 Z M26,18 L27,18 L27,19 L26,19 L26,18 Z M27,18 L28,18 L28,19 L27,19 L27,18 Z M29,19 L30,19 L30,20 L29,20 L29,19 Z M30,19 L31,19 L31,20 L30,20 L30,19 Z M25,20 L26,20 L26,21 L25,21 L25,20 Z M26,20 L27,20 L27,21 L26,21 L26,20 Z M28,20 L29,20 L29,21 L28,21 L28,20 Z M29,20 L30,20 L30,21 L29,21 L29,20 Z M30,20 L31,20 L31,21 L30,21 L30,20 Z M32,20 L33,20 L33,21 L32,21 L32,20 Z M25,21 L26,21 L26,22 L25,22 L25,21 Z M26,21 L27,21 L27,22 L26,22 L26,21 Z M27,21 L28,21 L28,22 L27,22 L27,21 Z M29,21 L30,21 L30,22 L29,22 L29,21 Z M32,21 L33,21 L33,22 L32,22 L32,21 Z M33,21 L34,21 L34,22 L33,22 L33,21 Z M34,21 L35,21 L35,22 L34,22 L34,21 Z M25,22 L26,22 L26,23 L25,23 L25,22 Z M26,22 L27,22 L27,23 L26,23 L26,22 Z M33,22 L34,22 L34,23 L33,23 L33,22 Z M34,22 L35,22 L35,23 L34,23 L34,22 Z M35,22 L36,22 L36,23 L35,23 L35,22 Z M33,23 L34,23 L34,24 L33,24 L33,23 Z M34,23 L35,23 L35,24 L34,24 L34,23 Z M36,23 L37,23 L37,24 L36,24 L36,23 Z M35,24 L36,24 L36,25 L35,25 L35,24 Z M34,25 L35,25 L35,26 L34,26 L34,25 Z M35,29 L36,29 L36,30 L35,30 L35,29 Z M36,29 L37,29 L37,30 L36,30 L36,29 Z M17,30 L18,30 L18,31 L17,31 L17,30 Z M35,30 L36,30 L36,31 L35,31 L35,30 Z M36,30 L37,30 L37,31 L36,31 L36,30 Z M37,30 L38,30 L38,31 L37,31 L37,30 Z M17,31 L18,31 L18,32 L17,32 L17,31 Z M18,31 L19,31 L19,32 L18,32 L18,31 Z M19,31 L20,31 L20,32 L19,32 L19,31 Z M17,32 L18,32 L18,33 L17,33 L17,32 Z M16,33 L17,33 L17,34 L16,34 L16,33 Z M16,34 L17,34 L17,35 L16,35 L16,34 Z M34,35 L35,35 L35,36 L34,36 L34,35 Z M19,38 L20,38 L20,39 L19,39 L19,38 Z M22,41 L23,41 L23,42 L22,42 L22,41 Z M24,41 L25,41 L25,42 L24,42 L24,41 Z M30,41 L31,41 L31,42 L30,42 L30,41 Z M32,41 L33,41 L33,42 L32,42 L32,41 Z M23,42 L24,42 L24,43 L23,43 L23,42 Z M25,42 L26,42 L26,43 L25,43 L25,42 Z M31,42 L32,42 L32,43 L31,43 L31,42 Z M22,43 L23,43 L23,44 L22,44 L22,43 Z M24,43 L25,43 L25,44 L24,44 L24,43 Z M32,43 L33,43 L33,44 L32,44 L32,43 Z M23,44 L24,44 L24,45 L23,45 L23,44 Z M31,44 L32,44 L32,45 L31,45 L31,44 Z M33,44 L34,44 L34,45 L33,45 L33,44 Z M22,45 L23,45 L23,46 L22,46 L22,45 Z M24,45 L25,45 L25,46 L24,46 L24,45 Z M33,50 L34,50 L34,51 L33,51 L33,50 Z M20,53 L21,53 L21,54 L20,54 L20,53 Z M21,53 L22,53 L22,54 L21,54 L21,53 Z M22,53 L23,53 L23,54 L22,54 L22,53 Z M23,53 L24,53 L24,54 L23,54 L23,53 Z M33,53 L34,53 L34,54 L33,54 L33,53 Z M34,53 L35,53 L35,54 L34,54 L34,53 Z M35,53 L36,53 L36,54 L35,54 L35,53 Z" id="Combined-Shape" fill="#827935"></path>
        </g>
    </g>
</svg>