<svg width="56" height="56" viewBox="0 0 56 56" xmlns="http://www.w3.org/2000/svg"><title>red_front</title><g fill="none" fill-rule="evenodd"><path d="M25 1h1v1h-1V1zm1 0h1v1h-1V1zm1 0h1v1h-1V1zm-5 1h1v1h-1V2zm1 0h1v1h-1V2zm6 0h1v1h-1V2zm1 0h1v1h-1V2zm-9 1h1v1h-1V3zm11 0h1v1h-1V3zm2 1h1v1h-1V4zM20 5h1v1h-1V5zm14 0h1v1h-1V5zm1 1h1v1h-1V6zM19 7h1v1h-1V7zm16 0h1v1h-1V7zM19 8h1v1h-1V8zm16 0h1v1h-1V8zM19 9h1v1h-1V9zm15 0h1v1h-1V9zm-15 1h1v1h-1v-1zm15 0h1v1h-1v-1zm-15 1h1v1h-1v-1zm1 0h1v1h-1v-1zm1 0h1v1h-1v-1zm1 0h1v1h-1v-1zm1 0h1v1h-1v-1zm11 0h1v1h-1v-1zm-15 1h1v1h-1v-1zm2 0h1v1h-1v-1zm3 0h1v1h-1v-1zm1 0h1v1h-1v-1zm10 0h1v1h-1v-1zm-18 1h1v1h-1v-1zm1 0h1v1h-1v-1zm5 0h1v1h-1v-1zm4 0h1v1h-1v-1zm1 0h1v1h-1v-1zm1 0h1v1h-1v-1zm6 0h1v1h-1v-1zm-18 1h1v1h-1v-1zm1 0h1v1h-1v-1zm5 0h1v1h-1v-1zm7 0h1v1h-1v-1zm1 0h1v1h-1v-1zm1 0h1v1h-1v-1zm1 0h1v1h-1v-1zm1 0h1v1h-1v-1zm-16 1h1v1h-1v-1zm1 0h1v1h-1v-1zm2 0h1v1h-1v-1zm11 0h1v1h-1v-1zm-13 1h1v1h-1v-1zm1 0h1v1h-1v-1zm1 0h1v1h-1v-1zm11 0h1v1h-1v-1zm-10 1h1v1h-1v-1zm4 0h1v1h-1v-1zm5 0h1v1h-1v-1zm-10 1h1v1h-1v-1zm2 0h1v1h-1v-1zm1 0h1v1h-1v-1zm5 0h1v1h-1v-1zm1 0h1v1h-1v-1zm-10 1h1v1h-1v-1zm4 0h1v1h-1v-1zm2 0h1v1h-1v-1zm1 0h1v1h-1v-1zm1 0h1v1h-1v-1zm3 0h1v1h-1v-1zm-12 1h1v1h-1v-1zm4 0h1v1h-1v-1zm4 0h1v1h-1v-1zm4 0h1v1h-1v-1zm2 0h1v1h-1v-1zm-14 1h1v1h-1v-1zm1 0h1v1h-1v-1zm3 0h1v1h-1v-1zm5 0h1v1h-1v-1zm2 0h1v1h-1v-1zm1 0h1v1h-1v-1zm4 0h1v1h-1v-1zm-17 1h1v1h-1v-1zm3 0h1v1h-1v-1zm3 0h1v1h-1v-1zm3 0h1v1h-1v-1zm1 0h1v1h-1v-1zm1 0h1v1h-1v-1zm3 0h1v1h-1v-1zm4 0h1v1h-1v-1zm-17 1h1v1h-1v-1zm3 0h1v1h-1v-1zm1 0h1v1h-1v-1zm1 0h1v1h-1v-1zm1 0h1v1h-1v-1zm1 0h1v1h-1v-1zm1 0h1v1h-1v-1zm1 0h1v1h-1v-1zm4 0h1v1h-1v-1zm5 0h1v1h-1v-1zm-20 1h1v1h-1v-1zm2 0h1v1h-1v-1zm5 0h1v1h-1v-1zm1 0h1v1h-1v-1zm1 0h1v1h-1v-1zm1 0h1v1h-1v-1zm1 0h1v1h-1v-1zm5 0h1v1h-1v-1zm4 0h1v1h-1v-1zm-18 1h1v1h-1v-1zm5 0h1v1h-1v-1zm1 0h1v1h-1v-1zm1 0h1v1h-1v-1zm1 0h1v1h-1v-1zm1 0h1v1h-1v-1zm1 0h1v1h-1v-1zm4 0h1v1h-1v-1zm3 0h1v1h-1v-1zm-20 1h1v1h-1v-1zm8 0h1v1h-1v-1zm1 0h1v1h-1v-1zm1 0h1v1h-1v-1zm1 0h1v1h-1v-1zm1 0h1v1h-1v-1zm1 0h1v1h-1v-1zm4 0h1v1h-1v-1zm2 0h1v1h-1v-1zm4 0h1v1h-1v-1zm-19 1h1v1h-1v-1zm5 0h1v1h-1v-1zm1 0h1v1h-1v-1zm1 0h1v1h-1v-1zm1 0h1v1h-1v-1zm1 0h1v1h-1v-1zm5 0h1v1h-1v-1zm-19 1h1v1h-1v-1zm5 0h1v1h-1v-1zm5 0h1v1h-1v-1zm1 0h1v1h-1v-1zm1 0h1v1h-1v-1zm1 0h1v1h-1v-1zm1 0h1v1h-1v-1zm5 0h1v1h-1v-1zm1 0h1v1h-1v-1zm5 0h1v1h-1v-1zm-25 1h1v1h-1v-1zm1 0h1v1h-1v-1zm1 0h1v1h-1v-1zm3 0h1v1h-1v-1zm5 0h1v1h-1v-1zm1 0h1v1h-1v-1zm1 0h1v1h-1v-1zm1 0h1v1h-1v-1zm1 0h1v1h-1v-1zm1 0h1v1h-1v-1zm4 0h1v1h-1v-1zm5 0h1v1h-1v-1zm-23 1h1v1h-1v-1zm2 0h1v1h-1v-1zm1 0h1v1h-1v-1zm1 0h1v1h-1v-1zm5 0h1v1h-1v-1zm1 0h1v1h-1v-1zm1 0h1v1h-1v-1zm1 0h1v1h-1v-1zm1 0h1v1h-1v-1zm1 0h1v1h-1v-1zm4 0h1v1h-1v-1zm4 0h1v1h-1v-1zm-22 1h1v1h-1v-1zm4 0h1v1h-1v-1zm5 0h1v1h-1v-1zm1 0h1v1h-1v-1zm1 0h1v1h-1v-1zm1 0h1v1h-1v-1zm1 0h1v1h-1v-1zm1 0h1v1h-1v-1zm5 0h1v1h-1v-1zm2 0h1v1h-1v-1zm-21 1h1v1h-1v-1zm3 0h1v1h-1v-1zm1 0h1v1h-1v-1zm5 0h1v1h-1v-1zm1 0h1v1h-1v-1zm1 0h1v1h-1v-1zm3 0h1v1h-1v-1zm3 0h1v1h-1v-1zm2 0h1v1h-1v-1zm1 0h1v1h-1v-1zm-21 1h1v1h-1v-1zm4 0h1v1h-1v-1zm1 0h1v1h-1v-1zm8 0h1v1h-1v-1zm1 0h1v1h-1v-1zm1 0h1v1h-1v-1zm1 0h1v1h-1v-1zm1 0h1v1h-1v-1zm2 0h1v1h-1v-1zm1 0h1v1h-1v-1zm-20 1h1v1h-1v-1zm4 0h1v1h-1v-1zm2 0h1v1h-1v-1zm1 0h1v1h-1v-1zm1 0h1v1h-1v-1zm1 0h1v1h-1v-1zm4 0h1v1h-1v-1zm4 0h1v1h-1v-1zm3 0h1v1h-1v-1zm-20 1h1v1h-1v-1zm1 0h1v1h-1v-1zm1 0h1v1h-1v-1zm4 0h1v1h-1v-1zm7 0h1v1h-1v-1zm4 0h1v1h-1v-1zm3 0h1v1h-1v-1zm-20 1h1v1h-1v-1zm3 0h1v1h-1v-1zm1 0h1v1h-1v-1zm2 0h1v1h-1v-1zm11 0h1v1h-1v-1zm1 0h1v1h-1v-1zm1 0h1v1h-1v-1zm-19 1h1v1h-1v-1zm1 0h1v1h-1v-1zm1 0h1v1h-1v-1zm3 0h1v1h-1v-1zm1 0h1v1h-1v-1zm5 0h1v1h-1v-1zm1 0h1v1h-1v-1zm5 0h1v1h-1v-1zm1 0h1v1h-1v-1zm-18 1h1v1h-1v-1zm5 0h1v1h-1v-1zm1 0h1v1h-1v-1zm6 0h1v1h-1v-1zm-8 1h1v1h-1v-1zm2 0h1v1h-1v-1zm5 0h1v1h-1v-1zm2 0h1v1h-1v-1zm5 0h1v1h-1v-1zm-16 1h1v1h-1v-1zm1 0h1v1h-1v-1zm3 0h1v1h-1v-1zm5 0h1v1h-1v-1zm2 0h1v1h-1v-1zm5 0h1v1h-1v-1zm-12 1h1v1h-1v-1zm5 0h1v1h-1v-1zm2 0h1v1h-1v-1zm5 0h1v1h-1v-1zm-7 1h1v1h-1v-1zm2 0h1v1h-1v-1zm5 0h1v1h-1v-1zm-13 1h1v1h-1v-1zm5 0h1v1h-1v-1zm-5 1h1v1h-1v-1zm5 0h1v1h-1v-1zm4 0h1v1h-1v-1zm5 0h1v1h-1v-1zm-14 1h1v1h-1v-1zm5 0h1v1h-1v-1zm4 0h1v1h-1v-1zm5 0h1v1h-1v-1zm-14 1h1v1h-1v-1zm5 0h1v1h-1v-1zm4 0h1v1h-1v-1zm5 0h1v1h-1v-1zm-13 1h1v1h-1v-1zm3 0h1v1h-1v-1zm5 0h1v1h-1v-1zm5 0h1v1h-1v-1zm-13 1h1v1h-1v-1zm1 0h1v1h-1v-1zm1 0h1v1h-1v-1zm1 0h1v1h-1v-1zm6 0h1v1h-1v-1zm3 0h1v1h-1v-1zm-13 1h1v1h-1v-1zm1 0h1v1h-1v-1zm3 0h1v1h-1v-1zm6 0h1v1h-1v-1zm1 0h1v1h-1v-1zm1 0h1v1h-1v-1zm1 0h1v1h-1v-1zm-13 1h1v1h-1v-1zm3 0h1v1h-1v-1zm2 0h1v1h-1v-1zm4 0h1v1h-1v-1zm5 0h1v1h-1v-1zm-15 1h1v1h-1v-1zm2 0h1v1h-1v-1zm1 0h1v1h-1v-1zm3 0h1v1h-1v-1zm4 0h1v1h-1v-1zm2 0h1v1h-1v-1zm2 0h1v1h-1v-1zm1 0h1v1h-1v-1zm1 0h1v1h-1v-1zm-16 1h1v1h-1v-1zm5 0h1v1h-1v-1zm1 0h1v1h-1v-1zm4 0h1v1h-1v-1zm3 0h1v1h-1v-1zm4 0h1v1h-1v-1zm-17 1h1v1h-1v-1zm5 0h1v1h-1v-1zm6 0h1v1h-1v-1zm1 0h1v1h-1v-1zm5 0h1v1h-1v-1zm-16 1h1v1h-1v-1zm1 0h1v1h-1v-1zm1 0h1v1h-1v-1zm1 0h1v1h-1v-1zm9 0h1v1h-1v-1zm1 0h1v1h-1v-1zm1 0h1v1h-1v-1zm1 0h1v1h-1v-1z"  fill="#2f3622" class="gb-dark"/><path d="M24 1h1v1h-1V1zm4 0h1v1h-1V1zm-3 1h1v1h-1V2zm1 0h1v1h-1V2zm1 0h1v1h-1V2zm1 0h1v1h-1V2zm3 0h1v1h-1V2zm-7 1h1v1h-1V3zm7 0h1v1h-1V3zm2 0h1v1h-1V3zM20 4h1v1h-1V4zm3 0h1v1h-1V4zm10 0h1v1h-1V4zM22 5h1v1h-1V5zm1 0h1v1h-1V5zm-4 1h1v1h-1V6zm3 0h1v1h-1V6zm12 0h1v1h-1V6zM22 7h1v1h-1V7zm-1 1h1v1h-1V8zm1 0h1v1h-1V8zm3 0h1v1h-1V8zm1 0h1v1h-1V8zm1 0h1v1h-1V8zm1 0h1v1h-1V8zm-8 1h1v1h-1V9zm1 0h1v1h-1V9zm1 0h1v1h-1V9zm1 0h1v1h-1V9zm1 0h1v1h-1V9zm5 0h1v1h-1V9zm1 0h1v1h-1V9zm1 0h1v1h-1V9zm-11 1h1v1h-1v-1zm1 0h1v1h-1v-1zm1 0h1v1h-1v-1zm10 0h1v1h-1v-1zm1 0h1v1h-1v-1zm-15 2h1v1h-1v-1zm4 0h1v1h-1v-1zm1 0h1v1h-1v-1zm2 1h1v1h-1v-1zm1 0h1v1h-1v-1zm-10 1h1v1h-1v-1zm4 0h1v1h-1v-1zm7 0h1v1h-1v-1zm1 0h1v1h-1v-1zm1 0h1v1h-1v-1zm-1 1h1v1h-1v-1zm-1 2h1v1h-1v-1zm3 0h1v1h-1v-1zm-2 1h1v1h-1v-1zm-3 1h1v1h-1v-1zm7 0h1v1h-1v-1zm2 1h1v1h-1v-1zm-15 2h1v1h-1v-1zm1 0h1v1h-1v-1zm10 0h1v1h-1v-1zm1 0h1v1h-1v-1zm-14 1h1v1h-1v-1zm3 0h1v1h-1v-1zm1 0h1v1h-1v-1zm8 0h1v1h-1v-1zm1 0h1v1h-1v-1zm1 0h1v1h-1v-1zm-11 1h1v1h-1v-1zm1 0h1v1h-1v-1zm1 0h1v1h-1v-1zm1 0h1v1h-1v-1zm6 0h1v1h-1v-1zm1 0h1v1h-1v-1zm1 0h1v1h-1v-1zm1 0h1v1h-1v-1zm-16 1h1v1h-1v-1zm4 0h1v1h-1v-1zm1 0h1v1h-1v-1zm1 0h1v1h-1v-1zm1 0h1v1h-1v-1zm7 0h1v1h-1v-1zm1 0h1v1h-1v-1zm1 0h1v1h-1v-1zm6 0h1v1h-1v-1zm1 0h1v1h-1v-1zm-19 1h1v1h-1v-1zm1 0h1v1h-1v-1zm1 0h1v1h-1v-1zm1 0h1v1h-1v-1zm7 0h1v1h-1v-1zm1 0h1v1h-1v-1zm1 0h1v1h-1v-1zm2 0h1v1h-1v-1zm-19 1h1v1h-1v-1zm6 0h1v1h-1v-1zm1 0h1v1h-1v-1zm1 0h1v1h-1v-1zm1 0h1v1h-1v-1zm6 0h1v1h-1v-1zm1 0h1v1h-1v-1zm1 0h1v1h-1v-1zm1 0h1v1h-1v-1zm2 0h1v1h-1v-1zm5 0h1v1h-1v-1zm-19 1h1v1h-1v-1zm1 0h1v1h-1v-1zm1 0h1v1h-1v-1zm1 0h1v1h-1v-1zm6 0h1v1h-1v-1zm1 0h1v1h-1v-1zm1 0h1v1h-1v-1zm1 0h1v1h-1v-1zm-12 1h1v1h-1v-1zm1 0h1v1h-1v-1zm1 0h1v1h-1v-1zm1 0h1v1h-1v-1zm7 0h1v1h-1v-1zm1 0h1v1h-1v-1zm1 0h1v1h-1v-1zm-12 1h1v1h-1v-1zm1 0h1v1h-1v-1zm1 0h1v1h-1v-1zm1 0h1v1h-1v-1zm7 0h1v1h-1v-1zm1 0h1v1h-1v-1zm1 0h1v1h-1v-1zm-12 1h1v1h-1v-1zm1 0h1v1h-1v-1zm1 0h1v1h-1v-1zm1 0h1v1h-1v-1zm7 0h1v1h-1v-1zm1 0h1v1h-1v-1zm2 0h1v1h-1v-1zm2 0h1v1h-1v-1zm-15 1h1v1h-1v-1zm1 0h1v1h-1v-1zm1 0h1v1h-1v-1zm1 0h1v1h-1v-1zm4 0h1v1h-1v-1zm1 0h1v1h-1v-1zm5 0h1v1h-1v-1zm-9 1h1v1h-1v-1zm8 0h1v1h-1v-1zm-13 1h1v1h-1v-1zm5 0h1v1h-1v-1zm1 0h1v1h-1v-1zm1 0h1v1h-1v-1zm2 0h1v1h-1v-1zm1 0h1v1h-1v-1zm1 0h1v1h-1v-1zm2 0h1v1h-1v-1zm1 0h1v1h-1v-1zm-16 1h1v1h-1v-1zm11 0h1v1h-1v-1zm1 0h1v1h-1v-1zm1 0h1v1h-1v-1zm2 0h1v1h-1v-1zm-17 1h1v1h-1v-1zm1 0h1v1h-1v-1zm5 0h1v1h-1v-1zm1 0h1v1h-1v-1zm1 0h1v1h-1v-1zm1 0h1v1h-1v-1zm1 0h1v1h-1v-1zm1 0h1v1h-1v-1zm1 0h1v1h-1v-1zm1 0h1v1h-1v-1zm1 0h1v1h-1v-1zm1 0h1v1h-1v-1zm-13 1h1v1h-1v-1zm1 0h1v1h-1v-1zm3 0h1v1h-1v-1zm1 0h1v1h-1v-1zm1 0h1v1h-1v-1zm1 0h1v1h-1v-1zm3 0h1v1h-1v-1zm1 0h1v1h-1v-1zm1 0h1v1h-1v-1zm1 0h1v1h-1v-1zm-15 1h1v1h-1v-1zm1 0h1v1h-1v-1zm1 0h1v1h-1v-1zm4 0h1v1h-1v-1zm1 0h1v1h-1v-1zm1 0h1v1h-1v-1zm1 0h1v1h-1v-1zm1 0h1v1h-1v-1zm2 0h1v1h-1v-1zm1 0h1v1h-1v-1zm1 0h1v1h-1v-1zm1 0h1v1h-1v-1zm1 0h1v1h-1v-1zm1 0h1v1h-1v-1zm-17 1h1v1h-1v-1zm1 0h1v1h-1v-1zm5 0h1v1h-1v-1zm1 0h1v1h-1v-1zm1 0h1v1h-1v-1zm1 0h1v1h-1v-1zm4 0h1v1h-1v-1zm1 0h1v1h-1v-1zm1 0h1v1h-1v-1zm1 0h1v1h-1v-1zm-10 1h1v1h-1v-1zm1 0h1v1h-1v-1zm1 0h1v1h-1v-1zm1 0h1v1h-1v-1zm4 0h1v1h-1v-1zm1 0h1v1h-1v-1zm1 0h1v1h-1v-1zm1 0h1v1h-1v-1zm-7 1h1v1h-1v-1zm4 0h1v1h-1v-1zm2 0h1v1h-1v-1zm-11 1h1v1h-1v-1zm1 0h1v1h-1v-1zm1 0h1v1h-1v-1zm2 0h1v1h-1v-1zm5 0h1v1h-1v-1zm1 0h1v1h-1v-1zm2 0h1v1h-1v-1zm-11 1h1v1h-1v-1zm2 0h1v1h-1v-1zm5 0h1v1h-1v-1zm1 0h1v1h-1v-1zm1 0h1v1h-1v-1zm1 0h1v1h-1v-1zm2 0h1v1h-1v-1zm-12 1h1v1h-1v-1zm1 0h1v1h-1v-1zm2 0h1v1h-1v-1zm6 0h1v1h-1v-1zm2 0h1v1h-1v-1zm-11 1h1v1h-1v-1zm2 0h1v1h-1v-1zm7 0h1v1h-1v-1zm1 0h1v1h-1v-1zm1 0h1v1h-1v-1zm1 0h1v1h-1v-1zm-12 1h1v1h-1v-1zm1 0h1v1h-1v-1zm1 0h1v1h-1v-1zm1 0h1v1h-1v-1zm6 0h1v1h-1v-1zm1 0h1v1h-1v-1zm1 0h1v1h-1v-1zm1 0h1v1h-1v-1zm-11 1h1v1h-1v-1zm1 0h1v1h-1v-1zm7 0h1v1h-1v-1zm1 0h1v1h-1v-1zm1 0h1v1h-1v-1zm1 0h1v1h-1v-1zm-2 1h1v1h-1v-1zm1 0h1v1h-1v-1zm-11 2h1v1h-1v-1zm1 0h1v1h-1v-1zm2 0h1v1h-1v-1zm6 0h1v1h-1v-1zm1 0h1v1h-1v-1zm-11 1h1v1h-1v-1zm3 0h1v1h-1v-1zm1 0h1v1h-1v-1zm6 0h1v1h-1v-1zm2 0h1v1h-1v-1zm-12 1h1v1h-1v-1zm3 0h1v1h-1v-1zm7 0h1v1h-1v-1zm1 0h1v1h-1v-1zm2 0h1v1h-1v-1zm-1 1h1v1h-1v-1zM22 35h1v1h-1v-1zm1 0h1v1h-1v-1zm1 0h1v1h-1v-1zm1 0h1v1h-1v-1zm1 0h1v1h-1v-1zm1 0h1v1h-1v-1zm-4 6h1v1h-1v-1z"  fill="#4d5d31" class="gb-normal"/><path d="M24 2h1v1h-1V2zm-2 1h1v1h-1V3zm1 0h1v1h-1V3zm7 0h1v1h-1V3zm-9 1h1v1h-1V4zm1 0h1v1h-1V4zm8 0h1v1h-1V4zm-9 1h1v1h-1V5zm9 0h1v1h-1V5zM20 6h1v1h-1V6zm1 0h1v1h-1V6zm9 0h1v1h-1V6zM20 7h1v1h-1V7zm1 0h1v1h-1V7zm8 0h1v1h-1V7zm-9 1h1v1h-1V8zm9 0h1v1h-1V8zm-6 2h1v1h-1v-1zm1 1h1v1h-1v-1zm1 0h1v1h-1v-1zm1 1h1v1h-1v-1zm1 0h1v1h-1v-1zm1 0h1v1h-1v-1zm1 0h1v1h-1v-1zm-9 1h1v1h-1v-1zm10 0h1v1h-1v-1zm1 0h1v1h-1v-1zm1 0h1v1h-1v-1zm1 0h1v1h-1v-1zm1 0h1v1h-1v-1zm-9 1h1v1h-1v-1zm1 0h1v1h-1v-1zm-2 1h1v1h-1v-1zm1 0h1v1h-1v-1zm2 0h1v1h-1v-1zm2 0h1v1h-1v-1zm1 0h1v1h-1v-1zm1 0h1v1h-1v-1zm-7 1h1v1h-1v-1zm1 0h1v1h-1v-1zm1 0h1v1h-1v-1zm1 0h1v1h-1v-1zm1 0h1v1h-1v-1zm1 0h1v1h-1v-1zm1 0h1v1h-1v-1zm1 0h1v1h-1v-1zm-6 1h1v1h-1v-1zm3 0h1v1h-1v-1zm1 0h1v1h-1v-1zm-4 1h1v1h-1v-1zm1 0h1v1h-1v-1zm1 0h1v1h-1v-1zm2 1h1v1h-1v-1zm1 0h1v1h-1v-1zm-5 1h1v1h-1v-1zm1 0h1v1h-1v-1zm2 0h1v1h-1v-1zm1 0h1v1h-1v-1zm1 0h1v1h-1v-1zm2 0h1v1h-1v-1zm-7 1h1v1h-1v-1zm1 0h1v1h-1v-1zm1 0h1v1h-1v-1zm2 0h1v1h-1v-1zm3 0h1v1h-1v-1zm1 0h1v1h-1v-1zm1 0h1v1h-1v-1zm-9 1h1v1h-1v-1zm1 0h1v1h-1v-1zm7 0h1v1h-1v-1zm1 0h1v1h-1v-1zm1 0h1v1h-1v-1zm-2 1h1v1h-1v-1zm1 0h1v1h-1v-1zm2 0h1v1h-1v-1zm-1 1h1v1h-1v-1zm-1 1h1v1h-1v-1zm1 4h1v1h-1v-1zm1 0h1v1h-1v-1zm-19 1h1v1h-1v-1zm18 0h1v1h-1v-1zm1 0h1v1h-1v-1zm1 0h1v1h-1v-1zm-20 1h1v1h-1v-1zm1 0h1v1h-1v-1zm1 0h1v1h-1v-1zm-2 1h1v1h-1v-1zm-1 1h1v1h-1v-1zm0 1h1v1h-1v-1zm18 1h1v1h-1v-1zm-15 3h1v1h-1v-1zm3 3h1v1h-1v-1zm2 0h1v1h-1v-1zm6 0h1v1h-1v-1zm2 0h1v1h-1v-1zm-9 1h1v1h-1v-1zm2 0h1v1h-1v-1zm6 0h1v1h-1v-1zm-9 1h1v1h-1v-1zm2 0h1v1h-1v-1zm8 0h1v1h-1v-1zm-9 1h1v1h-1v-1zm8 0h1v1h-1v-1zm2 0h1v1h-1v-1zm-11 1h1v1h-1v-1zm2 0h1v1h-1v-1zm9 5h1v1h-1v-1zm-13 3h1v1h-1v-1zm1 0h1v1h-1v-1zm1 0h1v1h-1v-1zm1 0h1v1h-1v-1zm10 0h1v1h-1v-1zm1 0h1v1h-1v-1zm1 0h1v1h-1v-1z" fill="#7d7f4c" class="gb-light"/></g></svg>
