<svg viewBox="0 0 28 28" xmlns="http://www.w3.org/2000/svg"><title>red_back</title><g fill="none" fill-rule="evenodd"><path d="M13 0h1v1h-1V0zm1 0h1v1h-1V0zm1 0h1v1h-1V0zm-4 1h1v1h-1V1zm1 0h1v1h-1V1zM9 2h1v1H9V2zm1 0h1v1h-1V2zM7 3h1v1H7V3zm1 0h1v1H8V3zM6 4h1v1H6V4zM5 5h1v1H5V5zm0 1h1v1H5V6zm0 1h1v1H5V7zm1 2h1v1H6V9zm8 0h1v1h-1V9zm1 0h1v1h-1V9zm1 0h1v1h-1V9zM6 10h1v1H6v-1zm1 0h1v1H7v-1zm1 0h1v1H8v-1zm1 0h1v1H9v-1zm1 0h1v1h-1v-1zm1 0h1v1h-1v-1zm1 0h1v1h-1v-1zm1 0h1v1h-1v-1zm1 0h1v1h-1v-1zm1 0h1v1h-1v-1zm2 0h1v1h-1v-1zM6 11h1v1H6v-1zm1 0h1v1H7v-1zm1 0h1v1H8v-1zm1 0h1v1H9v-1zm1 0h1v1h-1v-1zm1 0h1v1h-1v-1zm1 0h1v1h-1v-1zm1 0h1v1h-1v-1zm1 0h1v1h-1v-1zm1 0h1v1h-1v-1zm2 0h1v1h-1v-1zM7 12h1v1H7v-1zm1 0h1v1H8v-1zm1 0h1v1H9v-1zm1 0h1v1h-1v-1zm1 0h1v1h-1v-1zm1 0h1v1h-1v-1zm1 0h1v1h-1v-1zm1 0h1v1h-1v-1zm1 0h1v1h-1v-1zm2 0h1v1h-1v-1zm-9 1h1v1H8v-1zm1 0h1v1H9v-1zm1 0h1v1h-1v-1zm1 0h1v1h-1v-1zm1 0h1v1h-1v-1zm1 0h1v1h-1v-1zm1 0h1v1h-1v-1zm2 0h1v1h-1v-1zm-7 1h1v1H9v-1zm1 0h1v1h-1v-1zm1 0h1v1h-1v-1zm1 0h1v1h-1v-1zm0 3h1v1h-1v-1zm1 0h1v1h-1v-1zM2 18h1v1H2v-1zm9 0h1v1h-1v-1zm1 0h1v1h-1v-1zM1 19h1v1H1v-1zm3 0h1v1H4v-1zm1 0h1v1H5v-1zm5 0h1v1h-1v-1zm-9 1h1v1H1v-1zm1 0h1v1H2v-1zm1 0h1v1H3v-1zm3 0h1v1H6v-1zm4 0h1v1h-1v-1zM0 21h1v1H0v-1zm4 0h1v1H4v-1zm1 0h1v1H5v-1zm1 0h1v1H6v-1zm1 0h1v1H7v-1zm1 0h1v1H8v-1zm1 0h1v1H9v-1zm-9 1h1v1H0v-1zm1 0h1v1H1v-1zm7 0h1v1H8v-1zm1 0h1v1H9v-1zm4 0h1v1h-1v-1zM0 23h1v1H0v-1zm1 0h1v1H1v-1zm8 0h1v1H9v-1zm4 0h1v1h-1v-1zM1 24h1v1H1v-1zm8 0h1v1H9v-1zm3 0h1v1h-1v-1zM1 25h1v1H1v-1zm8 0h1v1H9v-1zm3 0h1v1h-1v-1zM2 26h1v1H2v-1zm1 0h1v1H3v-1zm7 0h1v1h-1v-1zm1 0h1v1h-1v-1zm2 0h1v1h-1v-1zm-9 1h1v1H4v-1zm1 0h1v1H5v-1zm1 0h1v1H6v-1zm1 0h1v1H7v-1zm1 0h1v1H8v-1zm1 0h1v1H9v-1zm2 0h1v1h-1v-1zm4-10h1v1h-1v-1zm2 0h1v1h-1v-1zm-3 1h1v1h-1v-1zm5 0h1v1h-1v-1zm-5 1h1v1h-1v-1zm4 0h1v1h-1v-1zm2 0h1v1h-1v-1zm3 0h1v1h-1v-1zm1 0h1v1h-1v-1zm-10 1h1v1h-1v-1zm3 0h1v1h-1v-1zm4 0h1v1h-1v-1zm1 0h1v1h-1v-1zm4 0h1v1h-1v-1zm-12 1h1v1h-1v-1zm2 0h1v1h-1v-1zm5 0h1v1h-1v-1zm5 0h1v1h-1v-1zm-10 1h1v1h-1v-1zm-2 1h1v1h-1v-1zm1 0h1v1h-1v-1zm7 0h1v1h-1v-1zm5 0h1v1h-1v-1zm-12 1h1v1h-1v-1zm7 0h1v1h-1v-1zm3 0h1v1h-1v-1zm2 0h1v1h-1v-1zm-13 1h1v1h-1v-1zm2 0h1v1h-1v-1zm6 0h1v1h-1v-1zm2 0h1v1h-1v-1zm1 0h1v1h-1v-1zm1 0h1v1h-1v-1zm-11 1h1v1h-1v-1zm2 0h1v1h-1v-1zm4 0h1v1h-1v-1zm1 0h1v1h-1v-1zm1 0h1v1h-1v-1zm-9 1h1v1h-1v-1zm4 0h1v1h-1v-1zm1 0h1v1h-1v-1zm1 0h1v1h-1v-1zm1 0h1v1h-1v-1zM17 1h1v1h-1V1zm1 0h1v1h-1V1zm1 1h1v1h-1V2zm0 1h1v1h-1V3zm1 2h1v1h-1V5zm0 1h1v1h-1V6zm1 0h1v1h-1V6zm1 0h1v1h-1V6zm1 1h1v1h-1V7zM8 8h1v1H8V8zm1 0h1v1H9V8zm1 0h1v1h-1V8zm11 0h1v1h-1V8zm1 0h1v1h-1V8zm-3 1h1v1h-1V9zm1 0h1v1h-1V9zm-1 1h1v1h-1v-1zm1 0h1v1h-1v-1zm-1 1h1v1h-1v-1zm1 2h1v1h-1v-1zm-1 1h1v1h-1v-1zM6 15h1v1H6v-1zm1 0h1v1H7v-1zm1 0h1v1H8v-1zm1 0h1v1H9v-1zm4 0h1v1h-1v-1zm1 0h1v1h-1v-1zm3 0h1v1h-1v-1zM4 16h1v1H4v-1zm6 0h1v1h-1v-1zm1 0h1v1h-1v-1zm1 0h1v1h-1v-1zm3 0h1v1h-1v-1zm1 0h1v1h-1v-1z" fill="#2f3622" class="gb-dark"/><path d="M16 0h1v1h-1V0zm4 4h1v1h-1V4zm-5 1h1v1h-1V5zm1 1h1v1h-1V6zm-1 1h1v1h-1V7zm1 0h1v1h-1V7zm1 0h1v1h-1V7zm1 0h1v1h-1V7zm-3 1h1v1h-1V8zm1 0h1v1h-1V8zm1 1h1v1h-1V9zm1 0h1v1h-1V9zm2 3h1v1h-1v-1zm-5 1h1v1h-1v-1zm0 2h1v1h-1v-1zm1 0h1v1h-1v-1zm2 0h1v1h-1v-1zm0 2h1v1h-1v-1zm7 2h1v1h-1v-1zm-3 3h1v1h-1v-1zm1 0h1v1h-1v-1zm4 0h1v1h-1v-1zm-3 1h1v1h-1v-1zM9 3h1v1H9V3zm1 0h1v1h-1V3zm1 0h1v1h-1V3zm2 0h1v1h-1V3zM7 4h1v1H7V4zm1 0h1v1H8V4zm1 0h1v1H9V4zm1 0h1v1h-1V4zm1 0h1v1h-1V4zm1 0h1v1h-1V4zm2 0h1v1h-1V4zM6 5h1v1H6V5zm1 0h1v1H7V5zm1 0h1v1H8V5zm1 0h1v1H9V5zm1 0h1v1h-1V5zm1 0h1v1h-1V5zm1 0h1v1h-1V5zm1 0h1v1h-1V5zM6 6h1v1H6V6zm1 0h1v1H7V6zm1 0h1v1H8V6zm1 0h1v1H9V6zm1 0h1v1h-1V6zm1 0h1v1h-1V6zm1 0h1v1h-1V6zm2 0h1v1h-1V6zM6 7h1v1H6V7zm1 0h1v1H7V7zm1 0h1v1H8V7zm1 0h1v1H9V7zm1 0h1v1h-1V7zm1 0h1v1h-1V7zm1 0h1v1h-1V7zm1 0h1v1h-1V7zm1 0h1v1h-1V7zM6 8h1v1H6V8zm1 0h1v1H7V8zm4 0h1v1h-1V8zm1 0h1v1h-1V8zm1 0h1v1h-1V8zm1 0h1v1h-1V8zM7 9h1v1H7V9zm1 0h1v1H8V9zm1 0h1v1H9V9zm1 0h1v1h-1V9zm1 0h1v1h-1V9zm1 0h1v1h-1V9zm1 0h1v1h-1V9zm-6 4h1v1H7v-1zm1 1h1v1H8v-1zm5 0h1v1h-1v-1zm-8 1h1v1H5v-1zm5 0h1v1h-1v-1zm1 0h1v1h-1v-1zm1 0h1v1h-1v-1zm-9 1h1v1H3v-1zm10 0h1v1h-1v-1zm1 0h1v1h-1v-1zM2 17h1v1H2v-1zm2 0h1v1H4v-1zm10 0h1v1h-1v-1zM3 18h1v1H3v-1zm2 0h1v1H5v-1zm2 0h1v1H7v-1zm2 0h1v1H9v-1zm4 0h1v1h-1v-1zM2 19h1v1H2v-1zm1 0h1v1H3v-1zm3 0h1v1H6v-1zm2 0h1v1H8v-1zm3 0h1v1h-1v-1zm1 0h1v1h-1v-1zm1 0h1v1h-1v-1zm-6 1h1v1H7v-1zm1 0h1v1H8v-1zm1 0h1v1H9v-1zm2 0h1v1h-1v-1zm1 0h1v1h-1v-1zm1 0h1v1h-1v-1zM2 21h1v1H2v-1zm1 0h1v1H3v-1zm7 0h1v1h-1v-1zm1 0h1v1h-1v-1zm1 0h1v1h-1v-1zm1 0h1v1h-1v-1zM2 22h1v1H2v-1zm1 0h1v1H3v-1zm1 0h1v1H4v-1zm1 0h1v1H5v-1zm1 0h1v1H6v-1zm1 0h1v1H7v-1zm3 0h1v1h-1v-1zm1 0h1v1h-1v-1zm1 0h1v1h-1v-1zM2 23h1v1H2v-1zm1 0h1v1H3v-1zm1 0h1v1H4v-1zm1 0h1v1H5v-1zm1 0h1v1H6v-1zm1 0h1v1H7v-1zm1 0h1v1H8v-1zm2 0h1v1h-1v-1zm1 0h1v1h-1v-1zm1 0h1v1h-1v-1zM2 24h1v1H2v-1zm1 0h1v1H3v-1zm1 0h1v1H4v-1zm1 0h1v1H5v-1zm1 0h1v1H6v-1zm1 0h1v1H7v-1zm1 0h1v1H8v-1zm2 0h1v1h-1v-1zm1 0h1v1h-1v-1zm2 0h1v1h-1v-1zm1 0h1v1h-1v-1zM2 25h1v1H2v-1zm1 0h1v1H3v-1zm1 0h1v1H4v-1zm1 0h1v1H5v-1zm1 0h1v1H6v-1zm1 0h1v1H7v-1zm1 0h1v1H8v-1zm2 0h1v1h-1v-1zm1 0h1v1h-1v-1zm2 0h1v1h-1v-1zm-9 1h1v1H4v-1zm1 0h1v1H5v-1zm1 0h1v1H6v-1zm1 0h1v1H7v-1zm1 0h1v1H8v-1zm1 0h1v1H9v-1zm3 0h1v1h-1v-1zm-2 1h1v1h-1v-1zm2 0h1v1h-1v-1zm1 0h1v1h-1v-1z" fill="#4d5d31" class="gb-normal"/><path d="M13 1h1v1h-1V1zm1 0h1v1h-1V1zm1 0h1v1h-1V1zm1 0h1v1h-1V1zm-5 1h1v1h-1V2zm1 0h1v1h-1V2zm1 0h1v1h-1V2zm1 0h1v1h-1V2zm1 0h1v1h-1V2zm1 0h1v1h-1V2zm1 0h1v1h-1V2zm1 0h1v1h-1V2zm-6 1h1v1h-1V3zm2 0h1v1h-1V3zm1 0h1v1h-1V3zm1 0h1v1h-1V3zm1 0h1v1h-1V3zm1 0h1v1h-1V3zm-5 1h1v1h-1V4zm2 0h1v1h-1V4zm1 0h1v1h-1V4zm1 0h1v1h-1V4zm1 0h1v1h-1V4zm1 0h1v1h-1V4zm-5 1h1v1h-1V5zm2 0h1v1h-1V5zm1 0h1v1h-1V5zm1 0h1v1h-1V5zm1 0h1v1h-1V5zm-6 1h1v1h-1V6zm2 0h1v1h-1V6zm2 0h1v1h-1V6zm1 0h1v1h-1V6zm1 0h1v1h-1V6zm-1 4h1v1h-1v-1zm-2 1h1v1h-1v-1zm0 1h1v1h-1v-1zm1 1h1v1h-1v-1zm-3 1h1v1h-1v-1zm1 0h1v1h-1v-1zm1 0h1v1h-1v-1zm1 0h1v1h-1v-1zm1 0h1v1h-1v-1zM5 16h1v1H5v-1zm1 0h1v1H6v-1zm1 0h1v1H7v-1zm1 0h1v1H8v-1zm1 0h1v1H9v-1zm-6 1h1v1H3v-1zm2 0h1v1H5v-1zm1 0h1v1H6v-1zm1 0h1v1H7v-1zm1 0h1v1H8v-1zm1 0h1v1H9v-1zm1 0h1v1h-1v-1zm1 0h1v1h-1v-1zm-7 1h1v1H4v-1zm2 0h1v1H6v-1zm2 0h1v1H8v-1zm2 0h1v1h-1v-1zm5 0h1v1h-1v-1zm-8 1h1v1H7v-1zm2 0h1v1H9v-1zm6 0h1v1h-1v-1zm0 1h1v1h-1v-1zm1 0h1v1h-1v-1zm-1 1h1v1h-1v-1zm2 0h1v1h-1v-1zm5 0h1v1h-1v-1zm-8 1h1v1h-1v-1zm1 0h1v1h-1v-1zm2 0h1v1h-1v-1zm1 0h1v1h-1v-1zm-2 1h1v1h-1v-1zm1 0h1v1h-1v-1zm1 0h1v1h-1v-1zm1 0h1v1h-1v-1zm-3 1h1v1h-1v-1zm1 0h1v1h-1v-1zm1 0h1v1h-1v-1zm1 0h1v1h-1v-1zm1 0h1v1h-1v-1zm1 0h1v1h-1v-1zm5 0h1v1h-1v-1zm-11 1h1v1h-1v-1zm2 0h1v1h-1v-1zm1 0h1v1h-1v-1zm1 0h1v1h-1v-1zm1 0h1v1h-1v-1zm1 0h1v1h-1v-1zm-7 1h1v1h-1v-1zm4 0h1v1h-1v-1zm1 0h1v1h-1v-1zm1 0h1v1h-1v-1z" fill="#7d7f4c" class="gb-light"/></g></svg>
